<svg width="55" height="43" viewBox="0 0 55 43" fill="none" xmlns="http://www.w3.org/2000/svg">
<g clip-path="url(#clip0_8729_192)">
<path fill-rule="evenodd" clip-rule="evenodd" d="M40.1395 2.14155C39.7915 1.67951 39.167 0.850184 38.7023 0.775085C37.5497 3.17119 37.223 6.04194 38.0997 8.57673C38.5211 9.79508 39.1811 10.8137 39.8577 11.8578C40.055 12.1624 40.2538 12.4691 40.4484 12.7836C39.8264 15.8236 38.0615 18.5608 36.1012 20.9207C35.5785 21.5503 35.0262 22.212 34.4173 22.7584C35.4757 20.8439 35.747 18.6646 35.141 16.5495C34.6624 14.8795 33.5903 13.3977 32.0458 12.5644C30.659 11.8161 28.9283 11.6925 27.4301 12.1595C25.7131 12.6945 24.3608 13.9129 23.5339 15.4969C23.2666 16.0091 23.0668 16.544 22.9099 17.0993C22.101 15.4385 20.933 14.0727 19.1353 13.4613C17.7225 12.9808 16.1252 13.0374 14.7805 13.7008C13.5215 14.3366 12.567 15.4469 12.1273 16.7869C11.5194 18.5932 11.7991 20.5346 12.6451 22.216C13.8813 24.6729 16.2794 26.7878 18.4811 28.7294C19.0653 29.2446 19.6356 29.7475 20.1667 30.2414L22.4761 32.3954C22.5864 32.4982 22.6971 32.6057 22.8087 32.7141C23.1437 33.0396 23.4882 33.3743 23.8657 33.6245C24.0327 33.5833 24.1715 33.456 24.3005 33.3376C24.3179 33.3216 24.3351 33.3058 24.3522 33.2904C25.5283 32.2301 26.6636 31.1168 27.7974 30.0051C28.3115 29.501 28.8253 28.9972 29.3424 28.4988C29.9683 27.8954 30.6021 27.2994 31.236 26.7034C32.1303 25.8624 33.0248 25.0213 33.8976 24.1589C34.559 23.5055 35.2004 22.8321 35.8213 22.1394C36.9471 20.8866 37.9592 19.5361 38.8463 18.1041C39.1528 17.5983 39.4099 17.074 39.667 16.5497C39.8574 16.1615 40.0478 15.7733 40.2582 15.3926C40.9134 14.2054 42.0472 13.2306 43.1318 12.449C46.2499 13.0622 49.2332 13.3097 51.9994 11.4438C52.5677 11.0602 54.2441 9.7806 54.4503 9.11752C54.3909 8.96193 54.3116 8.92298 54.1619 8.85198C53.8401 8.69911 53.4781 8.60098 53.1292 8.5064C53.0738 8.49138 53.0187 8.47645 52.9641 8.4614C51.053 7.9338 49.0207 7.84721 47.1495 8.57992C45.946 9.05121 44.6752 9.83687 43.8035 10.8011C43.657 10.9631 43.5217 11.1383 43.3865 11.3135C43.2035 11.5506 43.0204 11.7878 42.8085 11.9932C42.4636 12.3278 42.0927 12.6417 41.7213 12.9561C41.3983 13.2294 41.0748 13.5032 40.7677 13.7911C40.8632 13.0629 41.0845 12.5861 41.3234 12.0716C41.4618 11.7734 41.6062 11.4624 41.7353 11.0824C42.808 7.92821 42.2853 4.92745 40.2548 2.29368C40.2211 2.24999 40.1824 2.19851 40.1395 2.14155ZM28.9702 12.6091C29.1056 12.5992 29.2404 12.5994 29.3758 12.6014C30.7592 12.6258 32.0735 13.2066 33.0233 14.2125C34.2222 15.4644 34.7969 17.2604 34.7477 18.9763C34.7077 20.3541 34.2668 21.6686 33.5528 22.8407C32.4913 24.5815 30.9145 26.0421 29.3951 27.4496C29.0419 27.7767 28.6916 28.1013 28.3517 28.4257L23.8826 32.7158C22.4616 31.3432 20.9893 30.014 19.5203 28.6878L19.5152 28.6832C19.1236 28.3296 18.7311 27.9753 18.3411 27.6214L18.329 27.6108C16.2741 25.8093 13.8514 23.6854 12.9066 21.0568C12.371 19.5665 12.3488 17.9127 13.0352 16.4664C13.5557 15.354 14.5057 14.5006 15.6674 14.102C16.9228 13.6714 18.294 13.8154 19.4758 14.3978C20.7624 15.0317 21.7692 16.1946 22.3004 17.5191C22.3954 17.7558 22.4689 18.0005 22.5424 18.2451C22.5915 18.4087 22.6407 18.5723 22.6962 18.7335C22.836 18.846 22.8749 18.8561 23.0529 18.8882C23.1686 18.8124 23.4407 17.957 23.675 17.2207C23.8159 16.7775 23.9433 16.3772 24.0146 16.2159C24.2687 15.6328 24.6056 15.0893 25.0148 14.6022C26.0498 13.3741 27.3869 12.7475 28.9702 12.6091ZM32.876 14.9646C30.9163 14.9901 28.9566 14.9957 26.9968 14.9816C26.5596 16.1712 26.0099 17.34 25.4648 18.4992C25.2637 18.9268 25.0628 19.3539 24.8688 19.7795C23.4812 22.8247 22.0777 25.8622 20.6582 28.8923C20.9568 29.1533 21.2515 29.4184 21.5424 29.688C22.336 27.8056 23.2102 25.9567 24.0843 24.108C24.9824 22.2083 25.8806 20.3086 26.6913 18.3729L26.7849 18.2239C26.8708 18.3126 26.8741 18.4477 26.8772 18.5728C26.8776 18.5898 26.878 18.6067 26.8786 18.6232C26.9067 19.3674 26.897 20.1188 26.8873 20.8684C26.8824 21.2474 26.8775 21.6261 26.8775 22.0031L26.8895 28.9157C27.2123 28.608 27.534 28.2959 27.8564 27.9832C28.7168 27.1485 29.5821 26.3091 30.4862 25.5355C30.5096 23.971 30.5147 22.4064 30.5016 20.842C30.5005 20.6025 30.4952 20.3588 30.4898 20.1129C30.472 19.3002 30.4537 18.4643 30.5878 17.6831C30.6758 17.1693 30.8329 16.6321 31.2133 16.2574C31.7553 15.7227 32.5533 15.6146 33.2798 15.5784C33.2379 15.5145 33.1964 15.4504 33.1549 15.3862C33.0632 15.2447 32.9715 15.1029 32.876 14.9646ZM41.1031 4.70425C40.7302 3.85079 39.6763 2.06694 38.8955 1.58944C37.9296 4.48515 37.7326 6.85001 39.1223 9.65296C39.5238 10.4627 40.0162 11.2161 40.5114 11.9701C40.6268 9.55854 40.3737 7.39 39.7677 5.05867L39.8734 4.9514C40.1746 5.12309 40.44 6.10134 40.5559 6.52878C40.5647 6.56123 40.5729 6.5915 40.5799 6.61696C41.0129 8.18594 41.1043 9.71471 41.0957 11.3303C41.9405 9.15981 42.0456 6.86263 41.1031 4.70425ZM49.3607 8.60741C50.8709 8.50511 52.3228 8.77854 53.7673 9.19984C53.1544 9.89577 52.4113 10.5315 51.642 11.0477C49.2624 12.6443 46.5904 12.5629 43.887 12.0279C44.5113 11.6846 45.1853 11.4149 45.8473 11.153C46.8366 10.7822 47.8619 10.5111 48.89 10.2734C49.0477 10.2369 49.2099 10.2111 49.3724 10.1851C49.6056 10.1479 49.8392 10.1106 50.0604 10.042C50.1655 10.0094 50.246 9.97385 50.3225 9.8916C50.3679 9.84301 50.3672 9.8385 50.3612 9.79781C50.3595 9.78621 50.3573 9.77168 50.3557 9.75234C50.3527 9.75053 50.3497 9.74864 50.3468 9.74671C50.3446 9.7452 50.3423 9.74367 50.34 9.74214C50.3304 9.73557 50.3208 9.72904 50.31 9.72441C50.1638 9.66126 49.8907 9.696 49.6789 9.72294C49.6201 9.73042 49.5659 9.73731 49.5206 9.74132C47.6026 9.91119 45.8822 10.5394 44.1172 11.2607C45.5549 9.77639 47.2998 8.83737 49.3607 8.60741Z" fill="#B09A0C"/>
<path fill-rule="evenodd" clip-rule="evenodd" d="M32.8763 14.9645C30.9166 14.99 28.9569 14.9957 26.9972 14.9815C26.56 16.1711 26.0104 17.3397 25.4653 18.4988C25.2641 18.9267 25.0633 19.3536 24.8691 19.7795C23.4816 22.8246 22.078 25.8621 20.6585 28.8923C20.9571 29.1533 21.2518 29.4183 21.5427 29.6879C22.3363 27.8056 23.2105 25.9568 24.0845 24.1081C24.9827 22.2084 25.8809 20.3086 26.6916 18.3728L26.7853 18.2239C26.8712 18.3126 26.8745 18.4474 26.8775 18.5724C26.8779 18.5896 26.8783 18.6065 26.8789 18.6231C26.907 19.3673 26.8973 20.1187 26.8876 20.8683C26.8827 21.2474 26.8778 21.6261 26.8778 22.003L26.8898 28.9157C27.2127 28.6079 27.5344 28.2958 27.8567 27.9831C28.7172 27.1484 29.5824 26.3091 30.4865 25.5354C30.5099 23.971 30.5151 22.4064 30.5019 20.842C30.5009 20.6025 30.4955 20.3587 30.4902 20.1129C30.4723 19.3001 30.454 18.4643 30.5882 17.6831C30.6762 17.1693 30.8332 16.632 31.2136 16.2573C31.7557 15.7227 32.5536 15.6145 33.2802 15.5783C33.2383 15.5145 33.1968 15.4503 33.1552 15.3861C33.0636 15.2446 32.9718 15.1029 32.8763 14.9645Z" fill="white"/>
<path d="M26.9959 14.9815C28.9556 14.9957 30.9153 14.99 32.8751 14.9645C33.0139 15.1657 33.1447 15.3737 33.2789 15.5783C32.5524 15.6145 31.7544 15.7227 31.2124 16.2573C30.832 16.632 30.6749 17.1693 30.5869 17.6831C30.4121 18.7006 30.4961 19.8108 30.5007 20.842C30.5138 22.4064 30.5087 23.971 30.4852 25.5354C29.2424 26.599 28.0731 27.7865 26.8885 28.9157L26.8765 22.003C26.8765 20.8806 26.9199 19.7437 26.8777 18.6231C26.8725 18.4851 26.8817 18.3247 26.784 18.2239L26.6903 18.3728C25.0907 22.1925 23.1505 25.8713 21.5415 29.6879C21.2506 29.4183 20.9558 29.1533 20.6572 28.8923C22.0767 25.8622 23.4803 22.8246 24.8679 19.7795C25.5881 18.1996 26.3973 16.6103 26.9959 14.9815Z" fill="black"/>
<path d="M41.044 14.9747C42.0132 15.012 48.5944 14.9121 48.8286 15.03C48.8434 15.1072 48.8646 15.1932 48.8657 15.2727C48.8674 15.4956 48.8486 15.546 48.6258 15.5687C47.0636 15.7281 46.0241 16.0111 44.7823 17.0518C43.4932 18.1318 42.3223 19.412 41.1388 20.6053L35.8662 25.8838C38.4382 28.7615 40.9383 31.6985 43.4875 34.5955C44.8777 36.1759 46.7066 38.596 48.3928 39.7098C48.9428 40.0737 49.5888 40.4027 50.232 40.5626C50.7146 40.6826 51.4023 40.69 51.8301 40.9385C51.8313 41.1081 51.869 41.2429 51.7656 41.3823C50.8483 41.4577 49.891 41.392 48.9685 41.3788C47.3863 41.3451 45.803 41.3377 44.2203 41.356C43.6577 41.3628 41.1136 41.5011 40.7652 41.3943L40.7218 41.1921C40.8926 40.6797 41.7682 40.7854 42.1926 40.4781C42.4056 40.3239 42.5285 40.1188 42.5524 39.8555C42.5879 39.4739 42.4422 39.1072 42.2549 38.7834C41.7756 37.9523 41.0474 37.2126 40.4248 36.4821L37.4615 33.011C36.1152 31.45 34.7832 29.8695 33.393 28.3473C32.4357 29.3126 31.4464 30.2414 30.496 31.2158L30.4988 35.6944C30.5 36.5701 30.4531 37.4874 30.5485 38.3579C30.7553 40.237 31.5606 40.6649 33.3364 40.7997C33.6426 40.8231 33.947 40.8117 34.1978 41.0099C34.2618 41.1584 34.2709 41.1903 34.2543 41.3503C34.0973 41.4274 33.9013 41.4308 33.7294 41.4331C31.5481 41.4628 29.3582 41.3977 27.1751 41.4085C26.2412 41.4137 24.1583 41.5348 23.3208 41.3983C23.3051 41.3246 23.284 41.2446 23.2823 41.1686C23.2814 41.1292 23.2886 40.9282 23.3098 40.8996C23.3385 40.8608 25.4993 40.8265 26.2001 40.1097C26.508 39.795 26.6668 39.3363 26.7496 38.9119C26.9478 37.8963 26.8712 36.794 26.8667 35.7641C26.8575 34.451 26.8564 33.1378 26.8644 31.8247C28.017 30.6338 29.2679 29.5137 30.4771 28.3793L30.4971 29.7359C31.4904 28.6895 32.5693 27.7042 33.5963 26.6881L38.9117 21.3563C39.9467 20.3152 41.0994 19.288 42.0344 18.1594C42.2823 17.8597 42.5907 17.465 42.6438 17.073C42.6872 16.7497 42.6501 16.4267 42.4365 16.1686C42.0652 15.7202 41.4329 15.6578 40.8954 15.5938L41.044 14.9747Z" fill="black"/>
<path d="M0.441406 14.9921C2.81055 15.0074 5.17975 15.0035 7.54884 14.9805C8.49979 17.2626 9.57818 19.4994 10.5967 21.7524L17.2257 36.3833C18.0681 34.5252 18.9357 32.6786 19.8283 30.844C20.1049 31.0822 20.3663 31.3426 20.6322 31.5928C19.5862 33.837 18.5547 36.088 17.5379 38.3453C17.1372 39.2232 16.6257 40.6083 16.1068 41.3868C15.9635 41.4131 15.828 41.4531 15.6848 41.4091C14.9114 40.0497 14.2182 38.2579 13.5559 36.8054L9.39164 27.6568C7.98807 24.7763 6.6667 21.8397 5.34762 18.9196C5.43815 23.3227 5.35841 27.747 5.3595 32.152C5.3599 33.9958 5.18866 37.1173 5.58672 38.8142C5.91189 40.2011 6.8384 40.6968 8.17371 40.7951C8.51019 40.8202 8.91024 40.7985 9.20435 40.9836C9.28785 41.1332 9.29305 41.1624 9.29013 41.3343C9.27488 41.3434 9.26066 41.3548 9.24444 41.3628C9.09993 41.4331 8.90207 41.4331 8.74317 41.436C6.96292 41.4697 5.17169 41.4274 3.3903 41.4285C2.73224 41.4285 1.07547 41.5325 0.512518 41.388C0.460026 41.2686 0.451517 41.22 0.478249 41.0921C0.781488 40.6889 2.35372 40.7711 2.99516 40.3776C3.60815 40.0011 3.92538 39.3997 4.09114 38.7194C4.44601 37.2629 4.29128 35.5642 4.28722 34.0666L4.27443 27.8596L4.27066 21.6506C4.26975 20.501 4.32646 19.3209 4.23388 18.1769C4.19361 17.6793 4.08874 17.2273 3.81908 16.7979C3.03354 15.5473 1.74764 15.7929 0.527425 15.5118C0.418844 15.3589 0.447518 15.177 0.441406 14.9921Z" fill="black"/>
</g>
<defs>
<clipPath id="clip0_8729_192">
<rect width="54.6667" height="42.6667" fill="white"/>
</clipPath>
</defs>
</svg>
