<svg aria-hidden="true" style="position: absolute; width: 0; height: 0; overflow: hidden;" version="1.1" xmlns="http://www.w3.org/2000/svg" xmlns:xlink="http://www.w3.org/1999/xlink">
<defs>
<symbol id="icon-twitter" viewBox="0 0 36 32">
<path d="M28.352 0h5.52l-12.060 13.554 14.188 18.446h-11.108l-8.7-11.186-9.96 11.186h-5.522l12.9-14.5-13.61-17.5h11.39l7.866 10.226zM26.414 28.75h3.060l-19.746-25.67h-3.28z"></path>
</symbol>
<symbol id="icon-arrow-left" viewBox="0 0 32 32">
<path stroke-linejoin="miter" stroke-linecap="butt" stroke-miterlimit="4" stroke-width="2" d="M15.642 1c0.172 0 0.32 0.052 0.484 0.216 0.133 0.124 0.216 0.301 0.216 0.497 0 0.001 0 0.002 0 0.003v-0c0 0.172-0.054 0.32-0.216 0.486l-12.726 12.718h26.82c0.244 0 0.394 0.072 0.522 0.2 0.121 0.117 0.195 0.28 0.195 0.46 0 0.015-0.001 0.031-0.002 0.046l0-0.002c0 0.24-0.070 0.384-0.194 0.506-0.123 0.123-0.293 0.199-0.481 0.199-0.014 0-0.027-0-0.041-0.001l0.002 0h-26.82l12.71 12.708c0.164 0.166 0.22 0.32 0.222 0.504 0 0.006 0 0.013 0 0.020 0 0.131-0.042 0.253-0.114 0.351l0.001-0.002-0.102 0.124c-0.114 0.13-0.281 0.212-0.467 0.212-0.007 0-0.013-0-0.020-0l0.001 0c-0.001 0-0.002 0-0.004 0-0.201 0-0.381-0.087-0.506-0.225l-0.001-0.001-13.896-13.894c-0.074-0.070-0.135-0.154-0.178-0.247l-0.002-0.005c-0.030-0.069-0.048-0.15-0.048-0.236 0-0.005 0-0.010 0-0.015v0.001q0.002-0.14 0.046-0.244c0.046-0.098 0.107-0.182 0.182-0.252l0-0 13.9-13.9c0.128-0.14 0.311-0.227 0.514-0.228h0z"></path>
</symbol>
<symbol id="icon-arrow-right" viewBox="0 0 32 32">
<path stroke-linejoin="miter" stroke-linecap="butt" stroke-miterlimit="4" stroke-width="2" d="M16.29 1c0.14 0 0.264 0.034 0.388 0.12l0.122 0.108 13.898 13.898c0.074 0.070 0.135 0.152 0.178 0.245l0.002 0.005c0.030 0.069 0.048 0.15 0.048 0.236 0 0.005-0 0.010-0 0.015v-0.001c0 0.004 0 0.009 0 0.013 0 0.083-0.017 0.163-0.048 0.235l0.001-0.004c-0.046 0.098-0.107 0.182-0.182 0.252l-0 0-13.908 13.896c-0.184 0.18-0.34 0.232-0.506 0.232-0.162 0-0.306-0.050-0.474-0.22l-0.010-0.010-0.102-0.12c-0.071-0.098-0.114-0.22-0.114-0.352 0-0.005 0-0.010 0-0.015v0.001c0-0.13 0.030-0.246 0.114-0.364l0.102-0.12 12.724-12.724h-26.82c-0.246 0-0.39-0.070-0.51-0.192h-0.002c-0.122-0.122-0.192-0.268-0.192-0.512s0.070-0.39 0.192-0.512c0.122-0.12 0.266-0.192 0.512-0.192h26.82l-12.712-12.71c-0.104-0.096-0.178-0.223-0.209-0.365l-0.001-0.005-0.012-0.134c-0.002-0.18 0.050-0.328 0.21-0.49h0.002c0.114-0.132 0.282-0.214 0.469-0.214 0.007 0 0.013 0 0.020 0l-0.001-0z"></path>
</symbol>
<symbol id="icon-add" viewBox="0 0 32 32">
<path d="M13.436 17.082h-11.618c-0.012 0-0.027 0-0.041 0-0.49 0-0.934-0.202-1.252-0.527l-0-0c-0.324-0.321-0.525-0.766-0.525-1.259 0-0.014 0-0.028 0.001-0.043l-0 0.002q0-0.772 0.525-1.291c0.32-0.319 0.762-0.517 1.25-0.517 0.015 0 0.030 0 0.045 0.001l-0.002-0h11.618v-11.618c-0-0.011-0-0.025-0-0.038 0-0.493 0.202-0.939 0.527-1.261l0-0c0.318-0.328 0.763-0.532 1.256-0.532 0.015 0 0.030 0 0.045 0.001l-0.002-0c0.016-0.001 0.034-0.001 0.053-0.001 0.487 0 0.926 0.204 1.237 0.531l0.001 0.001c0.318 0.323 0.515 0.767 0.515 1.257 0 0.015-0 0.030-0.001 0.045l0-0.002v11.618h11.618q0.768 0 1.299 0.527c0.328 0.318 0.532 0.763 0.532 1.256 0 0.015-0 0.030-0.001 0.045l0-0.002c0.001 0.016 0.001 0.034 0.001 0.053 0 0.487-0.204 0.926-0.531 1.237l-0.001 0.001c-0.323 0.319-0.768 0.517-1.259 0.517-0.014 0-0.028-0-0.042-0l0.002 0h-11.616v11.618q0 0.768-0.527 1.295c-0.321 0.323-0.765 0.523-1.257 0.523-0.015 0-0.030-0-0.045-0.001l0.002 0c-0.013 0-0.028 0.001-0.043 0.001-0.488 0-0.93-0.2-1.247-0.523l-0-0c-0.319-0.32-0.517-0.762-0.517-1.25 0-0.016 0-0.031 0.001-0.047l-0 0.002z"></path>
</symbol>
<symbol id="icon-close" viewBox="0 0 32 32">
<path stroke-linejoin="miter" stroke-linecap="butt" stroke-miterlimit="4" stroke-width="2.2857" d="M27.829 1.143c0.375 0 0.608 0.112 0.791 0.295 0.185 0.186 0.299 0.442 0.299 0.725 0 0.023-0.001 0.046-0.002 0.069l0-0.003c0.001 0.020 0.002 0.042 0.002 0.066 0 0.283-0.114 0.539-0.299 0.725l-12.007 12.009 0.807 0.809 11.2 11.2c0.183 0.183 0.297 0.416 0.297 0.791 0.001 0.020 0.002 0.043 0.002 0.066 0 0.283-0.114 0.539-0.299 0.725l0-0c-0.186 0.185-0.442 0.299-0.725 0.299-0.023 0-0.046-0.001-0.069-0.002l0.003 0c-0.020 0.001-0.044 0.002-0.068 0.002-0.283 0-0.539-0.114-0.725-0.299l-12.007-12.007-12.009 12.009c-0.185 0.182-0.44 0.295-0.721 0.295-0.025 0-0.049-0.001-0.073-0.003l0.003 0c-0.020 0.001-0.044 0.002-0.068 0.002-0.282 0-0.537-0.113-0.723-0.297l0 0c-0.184-0.186-0.297-0.441-0.297-0.723 0-0.024 0.001-0.047 0.002-0.071l-0 0.003c0-0.375 0.112-0.61 0.295-0.793l12.007-12.007-0.809-0.807-11.2-11.2c-0.183-0.186-0.295-0.44-0.295-0.721 0-0.026 0.001-0.052 0.003-0.078l-0 0.003c-0.001-0.020-0.002-0.043-0.002-0.066 0-0.282 0.113-0.537 0.297-0.723l-0 0c0.186-0.184 0.441-0.297 0.723-0.297 0.024 0 0.047 0.001 0.071 0.002l-0.003-0c0.375 0 0.608 0.112 0.791 0.295l12.009 12.007 12.007-12.007c0.186-0.184 0.441-0.297 0.723-0.297 0.025 0 0.049 0.001 0.073 0.003l-0.003-0z"></path>
</symbol>
<symbol id="icon-email" viewBox="0 0 40 32">
<path stroke-linejoin="miter" stroke-linecap="butt" stroke-miterlimit="4" stroke-width="1.8824" d="M2.264 3.571v24.856h33.681v-24.109l-1.461 0.96-14.976 9.86q-0.169 0.090-0.297 0.141c-0.028 0.007-0.060 0.012-0.093 0.012-0.005 0-0.010-0-0.015-0l0.001 0c-0.004 0-0.008 0-0.013 0-0.033 0-0.065-0.004-0.095-0.012l0.003 0.001c-0.126-0.052-0.225-0.1-0.322-0.151l0.020 0.010-14.551-9.581v-0.753l14.957 9.798 18.129-11.84q0.045 0.218 0.047 0.456v24.269c0 0.602-0.213 1.118-0.681 1.585-0.467 0.467-0.984 0.678-1.594 0.678h-31.799c-0.606 0-1.12-0.211-1.587-0.678l-0.164-0.175c-0.319-0.368-0.514-0.851-0.514-1.38 0-0.012 0-0.024 0-0.036l-0 0.002v-24.264q0.002-0.25 0.049-0.48zM3.206 0.941h31.799c0.608 0 1.124 0.213 1.592 0.681h0.002q0.309 0.309 0.471 0.653h-35.921q0.164-0.344 0.471-0.655h0.002c0.469-0.469 0.981-0.68 1.585-0.68z"></path>
</symbol>
<symbol id="icon-phone" viewBox="0 0 32 32">
<path stroke-linejoin="miter" stroke-linecap="butt" stroke-miterlimit="4" stroke-width="1.6842" d="M2.137 0.842h5.895c0.308 0 0.522 0.093 0.701 0.258 0.168 0.163 0.301 0.362 0.384 0.585l0.004 0.011 0.088 0.275 1.12 5.076c0.056 0.389 0.042 0.701-0.017 0.948-0.052 0.224-0.166 0.415-0.323 0.562l-0.001 0.001-0.012 0.010-4.711 4.647 0.337 0.566q1.078 1.812 2.291 3.394 1.221 1.592 2.708 3.023c0.995 1.028 2.052 1.979 3.173 2.853l0.068 0.051q1.704 1.314 3.564 2.297l0.557 0.295 0.438-0.451 4.069-4.173c0.196-0.222 0.447-0.39 0.733-0.485l0.012-0.003q0.33-0.096 0.66-0.071l0.222 0.029 4.749 1.051c0.263 0.069 0.492 0.193 0.682 0.359l-0.002-0.002 0.168 0.173c0.182 0.215 0.293 0.496 0.293 0.803 0 0.010-0 0.019-0 0.029l0-0.001v5.743c0.001 0.015 0.001 0.032 0.001 0.049 0 0.343-0.141 0.654-0.368 0.877l-0 0c-0.223 0.228-0.535 0.37-0.879 0.37-0.017 0-0.033-0-0.050-0.001l0.002 0c-3.16 0-6.393-0.758-9.709-2.301q-4.973-2.307-9.251-6.582-4.008-4.008-6.289-8.635l-0.298-0.62c-1.544-3.32-2.304-6.552-2.304-9.704-0-0.013-0.001-0.028-0.001-0.043 0-0.26 0.078-0.502 0.211-0.704l-0.003 0.005 0.162-0.192c0.223-0.228 0.535-0.37 0.879-0.37 0.017 0 0.033 0 0.050 0.001l-0.002-0zM2.048 2.914q0.077 1.802 0.561 3.779 0.485 1.991 1.507 4.389l0.488 1.144 4.608-4.583-0.098-0.45-0.957-4.492-0.143-0.665h-6.006zM28.793 22.791l-0.672-0.138-4.643-0.96-0.323 0.337-4.116 4.315 1.066 0.497c1.074 0.51 2.34 0.964 3.655 1.296l0.147 0.031q2.050 0.514 4.002 0.613l0.886 0.044z"></path>
</symbol>
<symbol id="icon-geo" viewBox="0 0 27 32">
<path stroke-linejoin="miter" stroke-linecap="butt" stroke-miterlimit="4" stroke-width="1.6" d="M13.040 0.8c3.238 0 6.083 1.128 8.568 3.413 2.437 2.242 3.68 5.256 3.68 9.128 0 1.576-0.347 3.152-1.056 4.733-0.808 1.78-1.721 3.31-2.778 4.725l0.047-0.066c-1.148 1.549-2.33 2.918-3.605 4.194l0-0c-1.171 1.178-2.371 2.319-3.602 3.426l-0.081 0.071-0.010 0.008-0.008 0.006c-0.139 0.134-0.309 0.238-0.498 0.298l-0.009 0.003q-0.352 0.112-0.661 0.112-0.31 0-0.645-0.112c-0.187-0.064-0.348-0.164-0.48-0.292l0 0-0.013-0.014-0.016-0.011c-1.316-1.177-2.519-2.317-3.687-3.492l-0.004-0.004c-1.275-1.276-2.457-2.644-3.535-4.095l-0.070-0.099c-1.012-1.349-1.923-2.879-2.665-4.503l-0.063-0.155c-0.704-1.581-1.050-3.158-1.050-4.736 0-3.872 1.242-6.885 3.677-9.126 2.48-2.285 5.323-3.413 8.562-3.413zM13.040 1.934c-3.098 0-5.744 1.070-7.891 3.205-2.16 2.147-3.224 4.906-3.224 8.202 0 2.272 0.95 4.734 2.717 7.365 1.768 2.634 4.394 5.56 7.853 8.778l0.539 0.501 0.544-0.493c3.539-3.213 6.192-6.142 7.923-8.787 1.728-2.635 2.653-5.098 2.653-7.363 0-3.296-1.064-6.054-3.224-8.202v-0.003c-2.146-2.133-4.794-3.202-7.89-3.202zM13.035 10.971c0.587 0 1.062 0.197 1.474 0.608 0.411 0.406 0.608 0.88 0.608 1.466 0 0.587-0.198 1.061-0.606 1.467-0.359 0.372-0.862 0.604-1.418 0.604-0.018 0-0.035-0-0.053-0.001l0.003 0c-0.587 0-1.059-0.197-1.467-0.602-0.372-0.356-0.604-0.857-0.604-1.412 0-0.017 0-0.035 0.001-0.052l-0 0.003c0-0.514 0.152-0.944 0.462-1.318l0.141-0.157c0.356-0.374 0.858-0.607 1.415-0.607 0.016 0 0.032 0 0.049 0.001l-0.002-0z"></path>
</symbol>
<symbol id="icon-menu" viewBox="0 0 47 32">
<path d="M2.097 30.629c-0.014 0-0.031 0.001-0.047 0.001-0.566 0-1.078-0.233-1.444-0.608l-0-0c-0.375-0.374-0.606-0.891-0.606-1.463 0-0.019 0-0.038 0.001-0.056l-0 0.003q0-0.894 0.606-1.489c0.37-0.37 0.881-0.599 1.445-0.599 0.016 0 0.033 0 0.049 0.001l-0.002-0h40.849q0.886 0 1.502 0.608c0.377 0.371 0.611 0.887 0.611 1.457 0 0.016-0 0.031-0.001 0.047l0-0.002q0 0.906-0.61 1.502c-0.373 0.37-0.888 0.599-1.455 0.599-0.016 0-0.033-0-0.049-0.001l0.002 0zM2.097 17.41c-0.014 0-0.031 0.001-0.047 0.001-0.566 0-1.078-0.233-1.444-0.608l-0-0c-0.374-0.37-0.606-0.884-0.606-1.452 0-0.017 0-0.035 0.001-0.052l-0 0.003q0-0.886 0.606-1.487c0.37-0.368 0.879-0.596 1.443-0.596 0.017 0 0.034 0 0.052 0.001l-0.003-0h40.849q0.886 0 1.502 0.608c0.377 0.371 0.611 0.887 0.611 1.457 0 0.015-0 0.030-0 0.044l0-0.002c0 0.005 0 0.011 0 0.018 0 1.142-0.926 2.068-2.068 2.068-0.016 0-0.031-0-0.047-0.001l0.002 0zM2.097 4.207c-0.014 0-0.031 0.001-0.047 0.001-0.566 0-1.078-0.233-1.444-0.608l-0-0c-0.374-0.374-0.606-0.891-0.606-1.463 0-0.018 0-0.036 0.001-0.054l-0 0.003q0-0.891 0.606-1.489c0.37-0.368 0.879-0.596 1.442-0.596 0.016 0 0.033 0 0.049 0.001l-0.002-0h40.849q0.886 0 1.502 0.608c0.377 0.371 0.611 0.887 0.611 1.457 0 0.015-0 0.030-0 0.044l0-0.002q0 0.911-0.61 1.504c-0.373 0.369-0.886 0.596-1.453 0.596-0.017 0-0.034-0-0.051-0.001l0.003 0z"></path>
</symbol>
<symbol id="icon-decoration" viewBox="0 0 457 32">
<path d="M199.573 13.856h-172.64c-0.017-0.001-0.038-0.002-0.059-0.002-0.621 0-1.125 0.504-1.125 1.125s0.503 1.125 1.125 1.125c0.021 0 0.041-0.001 0.061-0.002l-0.003 0h172.64c0.62 0 1.123-0.503 1.123-1.123s-0.503-1.123-1.123-1.123v0z"></path>
<path d="M19.109 4.201c6.825 0 13.19 1.829 16.506 3.724 4.258 2.432 23.294 14.156 23.488 14.275 0.252 0.178 0.414 0.468 0.414 0.796 0 0.537-0.435 0.972-0.972 0.972-0.169 0-0.328-0.043-0.466-0.119l0.005 0.003c-0.19-0.117-19.202-11.825-23.433-14.242-4.457-2.548-14.831-4.968-23.939-2.362-5.222 1.49-7.32 4.276-8.162 6.35-0.99 2.447-0.763 5.333 0.61 7.717 2.72 4.724 9.835 6.648 18.127 4.902 5.019-1.058 7.86-4.277 7.985-6.77 0.094-1.894-1.304-3.398-3.941-4.235l-0.247-0.076 0.503-1.876-0.277 0.93 0.329-0.914 0.283 0.087c3.5 1.112 5.428 3.365 5.288 6.181-0.192 3.848-4.197 7.453-9.524 8.574-9.128 1.92-17.062-0.366-20.209-5.833-1.67-2.898-1.94-6.418-0.727-9.417 1.004-2.473 3.453-5.78 9.429-7.486 2.92-0.835 5.969-1.179 8.93-1.179zM40.635 10.005c0.192 0.119 19.23 11.843 23.488 14.277 4.754 2.717 15.788 5.298 25.435 2.545 5.975-1.707 8.427-5.016 9.429-7.49 1.213-2.997 0.943-6.519-0.728-9.417-2.405-4.18-7.613-6.502-14.014-6.502-1.967 0-4.047 0.219-6.193 0.67-1.282 0.27-2.502 0.683-3.627 1.228-3.81 1.845-6.124 5.004-5.894 8.046q0.020 0.267 0.079 0.573c0.528-0.395 1.151-0.697 1.826-0.866l0.036-0.008c-0.067-2.168 1.829-4.561 4.798-5.999 0.915-0.452 1.978-0.823 3.091-1.058l0.090-0.016c8.294-1.742 15.406 0.178 18.126 4.901 1.374 2.386 1.602 5.272 0.611 7.718-0.841 2.075-2.939 4.861-8.162 6.351-9.108 2.606-19.482 0.184-23.939-2.362-4.232-2.418-23.243-14.126-23.433-14.245-0.134-0.074-0.294-0.118-0.464-0.118-0.537 0-0.972 0.435-0.972 0.972 0 0.33 0.164 0.621 0.416 0.797l0.003 0.002z"></path>
<path d="M96.058 10.005c0.19 0.119 19.23 11.843 23.486 14.277 4.756 2.717 15.788 5.298 25.435 2.545 5.976-1.707 8.427-5.016 9.429-7.49 1.214-2.997 0.943-6.519-0.728-9.417-2.405-4.18-7.613-6.502-14.016-6.502-1.966 0-4.044 0.219-6.191 0.67-1.28 0.27-2.501 0.683-3.627 1.228-3.81 1.845-6.124 5.004-5.894 8.046q0.020 0.267 0.079 0.573c0.528-0.395 1.151-0.697 1.826-0.866l0.036-0.008c-0.067-2.168 1.83-4.561 4.8-5.999 0.915-0.452 1.978-0.823 3.091-1.058l0.090-0.016c8.293-1.742 15.406 0.178 18.126 4.901 1.373 2.386 1.6 5.272 0.61 7.718-0.841 2.075-2.939 4.861-8.162 6.351-9.108 2.606-19.482 0.184-23.939-2.362-4.232-2.418-23.243-14.126-23.433-14.245-0.134-0.074-0.294-0.118-0.464-0.118-0.537 0-0.972 0.435-0.972 0.972 0 0.33 0.164 0.621 0.415 0.797l0.003 0.002zM28.808 15.366l-3.581-3.581-3.581 3.581 3.581 3.581z"></path>
<path d="M22.476 15.366l-3.581-3.581-3.581 3.581 3.581 3.581zM256.759 13.856h172.642c0.62 0 1.123 0.503 1.123 1.123s-0.503 1.123-1.123 1.123h-172.642c-0.595-0.032-1.066-0.523-1.066-1.123s0.471-1.091 1.063-1.123l0.003-0z"></path>
<path d="M437.224 4.201c-6.824 0-13.189 1.829-16.503 3.724-4.259 2.432-23.296 14.156-23.49 14.275-0.279 0.174-0.461 0.479-0.461 0.827 0 0.536 0.435 0.971 0.971 0.971 0.189 0 0.365-0.054 0.514-0.147l-0.004 0.002c0.19-0.119 19.202-11.825 23.433-14.243 4.457-2.548 14.831-4.968 23.939-2.362 5.222 1.49 7.32 4.276 8.162 6.35 0.992 2.447 0.763 5.333-0.61 7.717-2.72 4.724-9.835 6.648-18.127 4.902-5.019-1.058-7.86-4.277-7.985-6.77-0.094-1.894 1.304-3.398 3.941-4.235l0.247-0.076-0.504-1.876 0.279 0.93-0.329-0.914-0.283 0.087c-3.5 1.112-5.428 3.365-5.288 6.181 0.192 3.848 4.197 7.453 9.524 8.574 9.128 1.92 17.062-0.366 20.209-5.833 1.67-2.898 1.94-6.418 0.727-9.417-1.004-2.473-3.453-5.78-9.429-7.486-2.92-0.835-5.969-1.179-8.931-1.179zM415.697 10.005c-0.19 0.119-19.23 11.843-23.486 14.277-4.756 2.717-15.788 5.298-25.437 2.545-5.975-1.707-8.425-5.016-9.428-7.49-1.214-2.997-0.943-6.519 0.728-9.417 2.405-4.18 7.613-6.502 14.014-6.502 1.967 0 4.046 0.219 6.191 0.67 1.283 0.27 2.502 0.683 3.628 1.228 3.81 1.845 6.124 5.004 5.894 8.046-0.016 0.215-0.044 0.411-0.084 0.603l0.005-0.030c-0.528-0.395-1.151-0.697-1.826-0.866l-0.036-0.008c0.067-2.168-1.83-4.561-4.798-5.999-0.915-0.452-1.979-0.823-3.092-1.058l-0.090-0.016c-8.293-1.742-15.406 0.178-18.126 4.901-1.373 2.386-1.602 5.272-0.61 7.718 0.84 2.075 2.939 4.861 8.162 6.351 9.108 2.606 19.482 0.184 23.939-2.362 4.232-2.418 23.243-14.126 23.433-14.245 0.155-0.108 0.346-0.173 0.554-0.173 0.537 0 0.972 0.435 0.972 0.972 0 0.367-0.203 0.686-0.503 0.852l-0.005 0.003z"></path>
<path d="M360.277 10.005c-0.192 0.119-19.23 11.843-23.488 14.277-4.756 2.717-15.788 5.298-25.435 2.545-5.975-1.707-8.425-5.016-9.428-7.49-1.214-2.997-0.945-6.519 0.727-9.417 2.405-4.18 7.613-6.502 14.014-6.502 1.967 0 4.047 0.219 6.193 0.67 1.282 0.27 2.502 0.683 3.628 1.228 3.81 1.845 6.123 5.004 5.894 8.046-0.021 0.223-0.049 0.419-0.087 0.611l0.006-0.039c-0.528-0.395-1.151-0.697-1.826-0.866l-0.036-0.008c0.067-2.168-1.83-4.561-4.798-5.999-0.914-0.452-1.978-0.823-3.091-1.058l-0.090-0.016c-8.293-1.742-15.407 0.178-18.126 4.901-1.374 2.386-1.603 5.272-0.611 7.718 0.841 2.075 2.939 4.861 8.162 6.351 9.108 2.606 19.482 0.184 23.941-2.362 4.23-2.418 23.241-14.126 23.433-14.245 0.145-0.090 0.321-0.144 0.509-0.144 0.536 0 0.971 0.435 0.971 0.971 0 0.348-0.183 0.653-0.458 0.824l-0.004 0.002zM431.106 18.947l3.582-3.581-3.582-3.581-3.581 3.581z"></path>
<path d="M437.437 18.947l3.582-3.581-3.582-3.581-3.581 3.581zM226.664 0.696l-12.989 12.989c-0.43 0.43-0.695 1.024-0.695 1.68s0.266 1.25 0.695 1.68l12.989 12.989c0.928 0.93 2.432 0.93 3.36 0l12.989-12.989c0.43-0.43 0.695-1.024 0.695-1.68s-0.266-1.25-0.695-1.68l-12.989-12.989c-0.43-0.43-1.024-0.695-1.68-0.695s-1.25 0.266-1.68 0.695l0-0z"></path>
</symbol>
<symbol id="icon-church" viewBox="0 0 32 32" fill="none" stroke="currentColor">
  <path stroke-linejoin="miter" stroke-linecap="butt" stroke-miterlimit="10" stroke-width="0.3264" d="M18.916 28.421h-4.806v-16.967l2.403-4.387 2.403 4.387zM16.513 7.067v-3.489M15.842 4.953h1.341"></path>
  <path stroke-linejoin="miter" stroke-linecap="butt" stroke-miterlimit="10" stroke-width="0.3264" d="M17.183 19.465h-1.341v-5.623c0-0.91 0.216-1.809 0.633-2.629l0.038-0.075 0.038 0.075c0.398 0.765 0.632 1.67 0.633 2.629v0zM17.183 28.421h-1.341v-1.664c0-0.91 0.216-1.809 0.633-2.629l0.038-0.075 0.038 0.075c0.398 0.765 0.632 1.67 0.633 2.629v0zM16.513 23.162c-0.37 0-0.671-0.284-0.671-0.634v-1.092c0-0.35 0.3-0.634 0.671-0.634s0.67 0.284 0.67 0.634v1.092c0 0.35-0.3 0.634-0.67 0.634zM21.619 23.498v-0.949c0-0.35-0.3-0.634-0.671-0.634s-0.67 0.284-0.67 0.634v0.949z"></path>
  <path stroke-linejoin="miter" stroke-linecap="butt" stroke-miterlimit="10" stroke-width="0.3264" d="M20.582 28.421h-1.666v-9.791h0.273c2.311 0 4.185 1.772 4.185 3.957v3.192c0 1.459-1.25 2.641-2.792 2.641zM11.397 23.498v-0.949c0-0.35 0.3-0.634 0.671-0.634s0.671 0.284 0.671 0.634v0.949z"></path>
  <path stroke-linejoin="miter" stroke-linecap="butt" stroke-miterlimit="10" stroke-width="0.3264" d="M12.435 28.421h1.666v-9.791h-0.274c-2.311 0-4.185 1.772-4.185 3.957v3.192c0 1.459 1.25 2.641 2.793 2.641z"></path>
  <path stroke-linejoin="round" stroke-linecap="round" stroke-miterlimit="10" stroke-width="0.3264" d="M22.461 20.013c0.189-0.218 0.333-0.47 0.42-0.746l1.748-5.459M23.082 18.938s1.074-2.42 4.018-1.937c0 0-1.385 2.409-4.018 1.937"></path>
  <path stroke-linejoin="round" stroke-linecap="round" stroke-miterlimit="10" stroke-width="0.3264" d="M24.544 14.029s0.907-2.48 3.878-2.177c0 0-1.218 2.489-3.878 2.177M23.412 16.964s-2.692-0.636-2.634-3.462c0 0 2.728 0.929 2.634 3.462M9.963 27.094c-0.195-0.201-0.351-0.442-0.456-0.708l-0.005-0.015-2.051-5.36M9.284 26.053s-1.205-2.36-4.094-1.726c0 0 1.513 2.334 4.094 1.725"></path>
  <path stroke-linejoin="round" stroke-linecap="round" stroke-miterlimit="10" stroke-width="0.3264" d="M7.548 21.227s-1.044-2.429-3.97-1.972c0 0 1.353 2.421 3.97 1.972"></path>
</symbol>

<symbol id="icon-camera" viewBox="0 0 32 32" fill="none" stroke="currentColor">
  <path stroke-linejoin="round" stroke-linecap="round" stroke-miterlimit="10" stroke-width="0.3786" d="M17.51 12.612h2.759v1.43h-2.759zM13.537 20.205c0-2.618 2.122-4.74 4.74-4.74s4.74 2.122 4.74 4.739-2.122 4.74-4.74 4.74-4.74-2.122-4.74-4.74"></path>
  <path stroke-linejoin="round" stroke-linecap="round" stroke-miterlimit="10" stroke-width="0.3786" d="M15.127 20.206c0-1.74 1.41-3.149 3.149-3.149s3.149 1.41 3.149 3.149-1.41 3.15-3.149 3.15-3.15-1.41-3.15-3.15M29.217 16.391v-1.252c0-0.624-0.506-1.13-1.13-1.13h-18.63c-0 0-0 0-0 0-0.624 0-1.13 0.506-1.13 1.13v0 1.252"></path>
  <path stroke-linejoin="round" stroke-linecap="round" stroke-miterlimit="10" stroke-width="0.3786" d="M15.41 16.391h-7.083v8.582c0 0.624 0.506 1.13 1.13 1.13h18.63c0 0 0 0 0 0 0.624 0 1.13-0.506 1.13-1.13v-8.583h-8.028M27.867 15.368h-2.431c-0.166-0-0.3-0.135-0.3-0.3v-0c0-0.166 0.135-0.3 0.3-0.3h2.431c0.166 0 0.3 0.135 0.3 0.3v0c-0 0.166-0.135 0.3-0.3 0.3h-0"></path>
  <path stroke-linejoin="round" stroke-linecap="round" stroke-miterlimit="10" stroke-width="0.3786" d="M10.22 24.972h-0.48c-0.214 0-0.39-0.176-0.39-0.39s0.175-0.39 0.39-0.39h0.48c0.215 0 0.39 0.176 0.39 0.39s-0.176 0.39-0.39 0.39M22.625 12.612h-7.472c-0.138 0-0.251-0.112-0.251-0.251v-3.903c0-0.139 0.112-0.251 0.251-0.251h7.472c0.138 0 0.251 0.112 0.251 0.251v3.903c-0 0.138-0.112 0.251-0.251 0.251 0 0 0 0 0 0v0"></path>
  <path stroke-linejoin="round" stroke-linecap="round" stroke-miterlimit="10" stroke-width="0.3786" d="M21.074 11.651h-4.37c-0.2 0-0.361-0.162-0.362-0.361v-1.761c0-0.2 0.162-0.362 0.362-0.362h4.37c0.2 0 0.362 0.162 0.362 0.362v1.761c0 0.2-0.162 0.362-0.362 0.362v0M21.34 13.78c0.335-0.141 0.621-0.335 0.862-0.576l4.947-4.947M22.598 12.958s2.498-2.030 5.23 0.104c0 0-2.811 1.847-5.23-0.104"></path>
  <path stroke-linejoin="round" stroke-linecap="round" stroke-miterlimit="10" stroke-width="0.3786" d="M26.934 8.449s2.362-2.186 5.226-0.231c0 0-2.686 2.023-5.226 0.231M24.078 11.004s-2.385-2.161-0.691-5.185c0 0 2.252 2.497 0.691 5.185"></path>
</symbol>

<symbol id="icon-glasses" viewBox="0 0 32 32" fill="none" stroke="currentColor">
  <path stroke-linejoin="miter" stroke-linecap="butt" stroke-miterlimit="10" stroke-width="0.3795" d="M11.442 13.059c0.763-0.451 1.422-0.474 2.023-0.294l1.098-7.004-5.672-0.853-0.974 6.222c0.242-0.104 0.481-0.179 0.672-0.239 1.84-0.419 1.254 3.318 2.854 2.168z"></path>
  <path stroke-linejoin="miter" stroke-linecap="butt" stroke-miterlimit="10" stroke-width="0.3795" d="M13.243 14.186l0.222-1.42c-0.601-0.18-1.259-0.157-2.023 0.294-1.599 1.15-1.014-2.587-2.854-2.168-0.191 0.060-0.429 0.136-0.672 0.239l-0.346 2.203c-0.222 1.421 0.683 2.754 2.061 3.131l-1.135 7.244c-1.156-0.137-2.075-0.056-2.115 0.203-0.044 0.285 0.984 0.676 2.298 0.873s2.414 0.127 2.459-0.157c0.041-0.259-0.811-0.606-1.956-0.816l1.135-7.243c1.43 0.045 2.702-0.961 2.925-2.381zM19.617 15.282c0.557-0.681 1.166-0.926 1.795-0.96l-1.44-6.945-5.623 1.119 1.279 6.17c0.191-0.179 0.388-0.332 0.546-0.452 1.579-1.016 2.347 2.689 3.443 1.068z"></path>
  <path stroke-linejoin="miter" stroke-linecap="butt" stroke-miterlimit="10" stroke-width="0.3795" d="M21.704 15.73l-0.292-1.408c-0.628 0.034-1.237 0.279-1.795 0.96-1.095 1.621-1.864-2.084-3.443-1.068-0.157 0.12-0.355 0.273-0.546 0.452l0.452 2.184c0.292 1.408 1.612 2.353 3.038 2.241l1.489 7.181c-1.133 0.263-1.966 0.65-1.913 0.907 0.058 0.282 1.161 0.301 2.464 0.042s2.311-0.698 2.252-0.98c-0.053-0.257-0.974-0.294-2.122-0.103l-1.489-7.181c1.358-0.442 2.197-1.816 1.905-3.225z"></path>
  <path stroke-linejoin="round" stroke-linecap="round" stroke-miterlimit="10" stroke-width="0.3795" d="M21.412 25.846c0.324-0.174 0.598-0.399 0.82-0.667l0.004-0.004 4.551-5.507M22.617 24.884s2.349-2.308 5.388-0.449c0 0-2.69 2.159-5.388 0.449"></path>
  <path stroke-linejoin="round" stroke-linecap="round" stroke-miterlimit="10" stroke-width="0.3795" d="M26.587 19.883s2.193-2.452 5.348-0.787c0 0-2.543 2.323-5.348 0.787M23.927 22.759s-2.685-1.925-1.27-5.15c0 0 2.585 2.278 1.27 5.15"></path>
</symbol>

<symbol id="icon-instagram" viewBox="0 0 32 32">
<path d="M15.999 6.16c3.205 0 3.585 0.016 4.845 0.072 1.173 0.052 1.804 0.248 2.227 0.413 0.557 0.215 0.96 0.477 1.377 0.893 0.423 0.423 0.68 0.821 0.9 1.379 0.164 0.423 0.36 1.060 0.413 2.227 0.056 1.267 0.069 1.645 0.069 4.847s-0.013 3.587-0.071 4.847c-0.051 1.173-0.248 1.804-0.412 2.227-0.203 0.54-0.508 1-0.894 1.377l-0.001 0.001c-0.423 0.423-0.821 0.68-1.379 0.9-0.421 0.164-1.059 0.36-2.227 0.413-1.265 0.056-1.644 0.069-4.845 0.069s-3.587-0.013-4.847-0.071c-1.173-0.051-1.805-0.248-2.227-0.412-0.54-0.203-1.001-0.508-1.378-0.895l-0.001-0.001c-0.389-0.377-0.695-0.837-0.891-1.352l-0.009-0.026c-0.164-0.421-0.36-1.059-0.413-2.227-0.055-1.265-0.069-1.644-0.069-4.847 0-3.2 0.013-3.584 0.071-4.845 0.052-1.173 0.248-1.805 0.413-2.227 0.215-0.559 0.477-0.96 0.893-1.379 0.378-0.389 0.838-0.696 1.353-0.891l0.026-0.009c0.423-0.164 1.060-0.36 2.227-0.413 1.261-0.055 1.64-0.069 4.847-0.069zM15.997 4.001c-3.257 0-3.665 0.015-4.945 0.071-1.275 0.057-2.151 0.263-2.911 0.559-0.833 0.318-1.542 0.79-2.126 1.386l-0.001 0.001c-0.596 0.584-1.068 1.292-1.373 2.084l-0.014 0.040c-0.296 0.764-0.503 1.635-0.56 2.909-0.052 1.284-0.068 1.692-0.068 4.949 0 3.259 0.013 3.665 0.071 4.945 0.056 1.275 0.263 2.152 0.557 2.911 0.318 0.833 0.79 1.542 1.386 2.126l0.001 0.001c0.584 0.595 1.293 1.065 2.084 1.369l0.040 0.014c0.764 0.296 1.636 0.503 2.911 0.559 1.28 0.056 1.687 0.071 4.944 0.071s3.667-0.013 4.947-0.071c1.273-0.056 2.151-0.263 2.909-0.559 0.831-0.318 1.539-0.788 2.122-1.382l0.001-0.001c0.665-0.667 1.079-1.335 1.383-2.123 0.296-0.764 0.501-1.635 0.559-2.911 0.056-1.28 0.071-1.687 0.071-4.944s-0.015-3.665-0.071-4.945c-0.057-1.275-0.263-2.151-0.559-2.911-0.305-0.838-0.774-1.551-1.372-2.132l-0.001-0.001c-0.584-0.594-1.292-1.064-2.082-1.368l-0.040-0.014c-0.764-0.296-1.635-0.503-2.911-0.559-1.284-0.061-1.691-0.076-4.948-0.076z"></path>
<path d="M15.999 9.836c-3.337 0.088-6.008 2.814-6.008 6.163s2.671 6.076 6 6.163l0.008 0c3.365-0.051 6.073-2.791 6.073-6.163s-2.708-6.112-6.069-6.163l-0.005-0zM15.999 19.996c-2.208 0-3.997-1.79-3.997-3.997s1.79-3.997 3.997-3.997v0c2.208 0 3.998 1.79 3.998 3.998s-1.79 3.998-3.998 3.998v0zM23.843 9.592c0.001 0.018 0.001 0.040 0.001 0.062 0 0.795-0.645 1.44-1.44 1.44s-1.44-0.645-1.44-1.44c0-0.022 0-0.043 0.001-0.065l-0 0.003c0.034-0.768 0.665-1.378 1.439-1.378s1.405 0.61 1.439 1.375l0 0.003z"></path>
</symbol>
<symbol id="icon-logo" viewBox="0 0 41 32">
<path fill="#b09a0c" style="fill: var(--color1, #b09a0c)" d="M29.872 1.594c-0.26-0.344-0.724-0.962-1.071-1.017-0.857 1.783-1.101 3.92-0.448 5.806 0.313 0.906 0.804 1.665 1.308 2.441q0.221 0.339 0.439 0.69c-0.463 2.262-1.776 4.299-3.235 6.055-0.389 0.469-0.8 0.961-1.253 1.367 0.788-1.424 0.99-3.046 0.539-4.621-0.356-1.243-1.154-2.345-2.303-2.966-1.032-0.557-2.32-0.648-3.435-0.301-1.278 0.398-2.285 1.305-2.899 2.484-0.179 0.339-0.338 0.735-0.454 1.149l-0.010 0.043c-0.602-1.235-1.471-2.252-2.809-2.707-1.052-0.357-2.24-0.316-3.241 0.179-0.932 0.477-1.636 1.287-1.966 2.269l-0.008 0.028c-0.452 1.344-0.244 2.789 0.386 4.040 0.92 1.828 2.704 3.402 4.343 4.847 0.435 0.384 0.86 0.758 1.255 1.125l1.719 1.603q0.122 0.115 0.247 0.238c0.249 0.242 0.506 0.491 0.787 0.677 0.124-0.031 0.228-0.126 0.323-0.214l0.039-0.036c0.875-0.789 1.721-1.617 2.564-2.445q0.573-0.564 1.15-1.121c0.466-0.45 0.938-0.893 1.41-1.337 0.665-0.625 1.331-1.252 1.981-1.893 0.484-0.479 0.951-0.968 1.403-1.472l0.028-0.032c0.803-0.891 1.545-1.872 2.199-2.914l0.052-0.088c0.228-0.377 0.42-0.767 0.611-1.156 0.141-0.29 0.283-0.578 0.44-0.861 0.487-0.884 1.332-1.609 2.139-2.191 2.32 0.456 4.54 0.64 6.599-0.748 0.423-0.286 1.671-1.238 1.824-1.731-0.045-0.116-0.103-0.145-0.214-0.198-0.24-0.114-0.509-0.187-0.769-0.258l-0.123-0.034c-1.422-0.392-2.934-0.457-4.327 0.089-0.896 0.351-1.842 0.935-2.49 1.653-0.1 0.113-0.202 0.237-0.299 0.365l-0.012 0.016c-0.137 0.187-0.278 0.352-0.431 0.507l0-0c-0.256 0.249-0.532 0.483-0.809 0.717-0.265 0.221-0.496 0.424-0.722 0.633l0.012-0.011c0.071-0.542 0.235-0.897 0.413-1.28 0.103-0.222 0.211-0.453 0.307-0.736 0.799-2.347 0.409-4.58-1.101-6.54zM21.559 9.383q0.151-0.010 0.302-0.006c1.070 0.020 2.030 0.476 2.712 1.197l0.002 0.002c0.893 0.932 1.32 2.268 1.284 3.545-0.030 1.025-0.358 2.004-0.889 2.876-0.79 1.295-1.963 2.382-3.094 3.43q-0.395 0.365-0.776 0.726l-3.326 3.193c-1.057-1.022-2.153-2.011-3.246-2.998l-0.004-0.004-0.883-0.798c-1.529-1.341-3.332-2.922-4.035-4.877-0.399-1.109-0.415-2.34 0.095-3.416 0.392-0.825 1.086-1.454 1.935-1.753l0.024-0.007c0.935-0.32 1.955-0.214 2.835 0.22 0.957 0.472 1.706 1.337 2.102 2.323 0.071 0.176 0.126 0.359 0.18 0.54q0.054 0.183 0.115 0.363c0.104 0.084 0.133 0.092 0.266 0.115 0.086-0.057 0.289-0.693 0.463-1.241 0.104-0.33 0.199-0.628 0.253-0.748 0.202-0.459 0.452-0.855 0.75-1.208l-0.006 0.007c0.77-0.914 1.765-1.38 2.943-1.483zM24.466 11.137q-2.188 0.028-4.376 0.013c-0.324 0.886-0.734 1.755-1.139 2.617q-0.226 0.478-0.444 0.953c-2.861 6.607-3.91 8.836-4.971 11.059l1.838-4.277q0.333 0.291 0.657 0.592c0.591-1.401 1.241-2.777 1.892-4.153 0.668-1.414 1.337-2.828 1.94-4.268l0.070-0.112c0.064 0.067 0.067 0.167 0.068 0.26l0.002 0.037c0.021 0.554 0.013 1.113 0.006 1.671q-0.007 0.424-0.007 0.845l0.010 5.145q0.359-0.345 0.719-0.694c0.64-0.621 1.284-1.246 1.957-1.822q0.027-1.746 0.012-3.492c-0.002-0.204-0.005-0.394-0.010-0.584l0.001 0.041c-0.013-0.604-0.027-1.226 0.073-1.808 0.066-0.383 0.182-0.781 0.465-1.061 0.403-0.397 0.997-0.478 1.538-0.505l-0.093-0.143q-0.102-0.159-0.208-0.313zM30.588 3.501c0.702 1.607 0.624 3.316-0.005 4.931 0.006-1.202-0.062-2.34-0.384-3.507l-0.018-0.066c-0.086-0.319-0.284-1.046-0.508-1.174l-0.078 0.080c0.451 1.735 0.639 3.349 0.554 5.143-0.369-0.561-0.735-1.122-1.034-1.724-1.034-2.086-0.887-3.846-0.169-6.001 0.581 0.356 1.366 1.683 1.643 2.319zM36.734 6.404c1.124-0.076 2.204 0.128 3.279 0.441-0.464 0.519-0.983 0.972-1.552 1.357l-0.029 0.019c-1.771 1.188-3.76 1.127-5.771 0.729 0.464-0.255 0.966-0.456 1.459-0.651 0.737-0.275 1.5-0.478 2.265-0.655 0.118-0.027 0.238-0.046 0.359-0.066 0.174-0.028 0.348-0.055 0.512-0.106 0.077-0.019 0.143-0.058 0.195-0.112l0-0c0.034-0.036 0.033-0.039 0.030-0.070q-0.004-0.013-0.004-0.034l-0.012-0.007-0.022-0.013c-0.109-0.047-0.313-0.021-0.47-0.001l-0.118 0.013c-1.427 0.127-2.708 0.594-4.022 1.131 1.070-1.105 2.369-1.804 3.903-1.975z"></path>
<path fill="#fff" style="fill: var(--color2, #fff)" d="M24.466 11.137q-2.188 0.028-4.375 0.013c-0.325 0.886-0.735 1.755-1.14 2.617-0.149 0.319-0.299 0.636-0.444 0.953-2.861 6.607-3.91 8.836-4.971 11.059l1.838-4.277q0.333 0.291 0.658 0.592c0.59-1.401 1.241-2.777 1.891-4.153 0.669-1.414 1.337-2.828 1.941-4.268l0.069-0.112c0.064 0.067 0.067 0.167 0.069 0.26v0.037c0.022 0.554 0.015 1.113 0.007 1.671q-0.007 0.424-0.007 0.845l0.009 5.145q0.359-0.345 0.72-0.694c0.64-0.621 1.284-1.246 1.957-1.822q0.025-1.746 0.011-3.492-0.002-0.268-0.009-0.543c-0.013-0.604-0.027-1.226 0.073-1.808 0.066-0.383 0.182-0.782 0.466-1.061 0.403-0.397 0.997-0.479 1.538-0.505l-0.093-0.143c-0.097-0.152-0.165-0.254-0.235-0.355l0.028 0.042z"></path>
<path fill="#000" style="fill: var(--color3, #000)" d="M20.090 11.149q2.188 0.016 4.376-0.013c0.103 0.15 0.2 0.305 0.3 0.457-0.541 0.028-1.135 0.108-1.538 0.506-0.283 0.278-0.4 0.678-0.465 1.060-0.13 0.758-0.067 1.584-0.064 2.351 0.003 0.367 0.005 0.802 0.005 1.236 0 0.793-0.006 1.585-0.018 2.375l0.001-0.119c-0.925 0.792-1.795 1.676-2.676 2.515l-0.009-5.144c0-0.835 0.032-1.682 0-2.515-0.004-0.103 0.004-0.222-0.069-0.298l-0.070 0.112c-1.191 2.843-2.634 5.58-3.832 8.42q-0.324-0.301-0.658-0.592 1.585-3.382 3.133-6.781c0.537-1.176 1.139-2.359 1.584-3.571zM30.544 11.144c0.722 0.028 5.619-0.047 5.793 0.041 0.010 0.057 0.027 0.121 0.028 0.181 0.001 0.166-0.013 0.203-0.179 0.22-1.162 0.119-1.936 0.329-2.861 1.104-0.959 0.804-1.831 1.756-2.711 2.644l-3.924 3.929c1.914 2.142 3.774 4.327 5.671 6.483 1.034 1.176 2.396 2.977 3.651 3.806 0.409 0.271 0.89 0.516 1.369 0.635 0.359 0.089 0.871 0.095 1.189 0.279 0.001 0.127 0.029 0.227-0.048 0.33-0.683 0.057-1.395 0.007-2.081-0.002-0.682-0.015-1.485-0.024-2.29-0.024-0.438 0-0.875 0.003-1.311 0.008l0.066-0.001c-0.418 0.005-2.311 0.108-2.571 0.028l-0.032-0.15c0.127-0.381 0.778-0.303 1.094-0.531 0.151-0.104 0.253-0.271 0.268-0.462l0-0.002c0.027-0.284-0.082-0.557-0.221-0.798-0.357-0.618-0.899-1.168-1.362-1.712l-2.205-2.584c-1.002-1.162-1.994-2.338-3.028-3.471-0.712 0.719-1.449 1.41-2.156 2.135l0.002 3.332c0.001 0.652-0.034 1.334 0.037 1.983 0.153 1.398 0.753 1.717 2.074 1.817 0.228 0.017 0.455 0.009 0.642 0.156 0.048 0.11 0.054 0.134 0.042 0.253-0.117 0.057-0.263 0.060-0.391 0.062-1.622 0.022-3.252-0.026-4.877-0.019-0.695 0.004-2.245 0.095-2.868-0.007-0.012-0.054-0.028-0.114-0.029-0.171 0-0.029 0.005-0.179 0.021-0.199 0.022-0.030 1.63-0.054 2.151-0.588 0.229-0.234 0.348-0.576 0.409-0.892 0.147-0.756 0.090-1.576 0.087-2.343q-0.010-1.466-0.002-2.932c0.858-0.886 1.789-1.719 2.689-2.564l0.015 1.010c0.739-0.779 1.542-1.512 2.307-2.268l3.955-3.968c0.77-0.774 1.628-1.539 2.323-2.379 0.185-0.223 0.415-0.516 0.454-0.808 0.032-0.24 0.004-0.481-0.154-0.673-0.277-0.334-0.747-0.38-1.148-0.428zM0.328 11.157q2.646 0.016 5.29-0.009c0.707 1.699 1.511 3.364 2.268 5.040l4.933 10.888q0.94-2.074 1.936-4.122c0.206 0.177 0.4 0.371 0.598 0.557 0.327-0.947-0.445 0.704-1.206 2.362l-1.096 2.663c-0.298 0.653-0.679 1.684-1.065 2.264-0.106 0.019-0.208 0.049-0.314 0.016-0.576-1.012-1.092-2.345-1.585-3.426l-3.098-6.808c-1.045-2.143-2.028-4.329-3.010-6.502 0.067 3.277 0.007 6.569 0.008 9.847 0 1.372-0.127 3.695 0.17 4.958 0.242 1.032 0.931 1.401 1.925 1.474 0.25 0.019 0.548 0.002 0.766 0.141 0.063 0.112 0.066 0.132 0.064 0.26l-0.034 0.022c-0.107 0.052-0.255 0.052-0.372 0.054-1.325 0.025-2.658-0.007-3.984-0.006-0.49 0-1.723 0.078-2.141-0.030-0.039-0.089-0.045-0.125-0.026-0.22 0.225-0.3 1.396-0.238 1.873-0.531 0.456-0.281 0.692-0.728 0.816-1.235 0.264-1.084 0.149-2.348 0.146-3.462l-0.010-4.619-0.002-4.621c-0.001-0.855 0.041-1.734-0.028-2.585-0.030-0.371-0.108-0.707-0.309-1.027-0.584-0.93-1.541-0.747-2.45-0.956-0.080-0.114-0.060-0.249-0.064-0.387z"></path>
</symbol>
<symbol id="icon-cube" viewBox="0 0 32 32" fill="none" stroke="currentColor">
  <path 
    fill="currentColor" 
    stroke="none" 
    d="M16 15.5V28L5.5 22V9.5L16 15.5Z" 
  />
  <path 
    stroke-width="2.5" 
    stroke-linecap="round" 
    stroke-linejoin="round" 
    d="M16 3L26.5 9v13L16 28L5.5 22V9L16 3z 
       M5.5 9L16 15.5 M16 15.5v12.5 M16 15.5L26.5 9" 
  />
</symbol>
<symbol id="icon-facebook" viewBox="0 0 32 32">
<path d="M32 16.098c0-8.89-7.163-16.098-16-16.098s-16 7.208-16 16.098c0 8.035 5.851 14.694 13.501 15.902v-11.248h-4.064v-4.656h4.064v-3.544c0-4.035 2.387-6.264 6.043-6.264 1.75 0 3.581 0.315 3.581 0.315v3.962h-2.016c-1.989 0-2.608 1.24-2.608 2.512v3.021h4.437l-0.709 4.653h-3.728v11.25c7.648-1.208 13.499-7.867 13.499-15.902z"></path>
</symbol>
</defs>
</svg>
