<svg aria-hidden="true" style="position: absolute; width: 0; height: 0; overflow: hidden;" version="1.1" xmlns="http://www.w3.org/2000/svg" xmlns:xlink="http://www.w3.org/1999/xlink">
<defs>
<symbol id="icon-Group-1" viewBox="0 0 457 32">
<path d="M199.573 13.856h-172.64c-0.621 0-1.124 0.503-1.124 1.123s0.503 1.123 1.124 1.123h172.64c0.62 0 1.123-0.503 1.123-1.123s-0.503-1.123-1.123-1.123z"></path>
<path d="M19.11 4.201c6.823 0 13.189 1.829 16.504 3.724 4.258 2.433 23.296 14.157 23.488 14.275 0.456 0.282 0.598 0.88 0.317 1.336-0.28 0.456-0.877 0.6-1.335 0.317-0.191-0.117-19.202-11.825-23.434-14.243-4.456-2.547-14.83-4.968-23.939-2.362-5.222 1.492-7.321 4.277-8.162 6.351-0.992 2.446-0.764 5.333 0.609 7.717 2.72 4.723 9.835 6.648 18.127 4.902 5.019-1.057 7.86-4.278 7.985-6.771 0.094-1.894-1.305-3.398-3.94-4.234l-0.248-0.076 0.504-1.876-0.279 0.931 0.329-0.915 0.283 0.086c3.5 1.111 5.428 3.364 5.288 6.18-0.192 3.847-4.197 7.453-9.524 8.574-9.128 1.92-17.061-0.366-20.208-5.833-1.67-2.899-1.941-6.419-0.727-9.416 1.003-2.474 3.452-5.781 9.428-7.488 2.92-0.835 5.968-1.179 8.931-1.179z"></path>
<path d="M40.636 10.005c0.191 0.119 19.23 11.844 23.487 14.276 4.756 2.717 15.788 5.299 25.436 2.544 5.975-1.707 8.425-5.015 9.428-7.489 1.214-2.997 0.943-6.518-0.728-9.416-2.405-4.181-7.613-6.503-14.015-6.503-1.967 0-4.046 0.219-6.192 0.671-1.282 0.268-2.502 0.682-3.628 1.227-3.809 1.846-6.123 5.004-5.894 8.047 0.013 0.174 0.041 0.369 0.080 0.571 0.525-0.395 1.149-0.693 1.862-0.873-0.067-2.169 1.83-4.56 4.798-5.998 0.982-0.477 2.054-0.837 3.181-1.075 8.293-1.743 15.406 0.177 18.126 4.901 1.374 2.385 1.601 5.271 0.61 7.718-0.841 2.074-2.939 4.859-8.162 6.351-9.108 2.604-19.482 0.184-23.94-2.362-4.232-2.418-23.242-14.125-23.433-14.244-0.454-0.28-1.053-0.138-1.336 0.317-0.28 0.456-0.139 1.055 0.318 1.336z"></path>
<path d="M96.057 10.005c0.191 0.119 19.23 11.844 23.487 14.276 4.756 2.717 15.789 5.299 25.436 2.544 5.975-1.707 8.426-5.015 9.429-7.489 1.214-2.997 0.943-6.518-0.728-9.416-2.405-4.181-7.613-6.503-14.016-6.503-1.966 0-4.045 0.219-6.191 0.671-1.282 0.268-2.502 0.682-3.628 1.227-3.809 1.846-6.123 5.004-5.894 8.047 0.013 0.174 0.041 0.369 0.079 0.571 0.525-0.395 1.15-0.693 1.863-0.873-0.067-2.169 1.83-4.56 4.798-5.998 0.982-0.477 2.054-0.837 3.181-1.075 8.293-1.743 15.406 0.177 18.126 4.901 1.374 2.385 1.601 5.271 0.61 7.718-0.84 2.074-2.939 4.859-8.161 6.351-9.108 2.604-19.482 0.184-23.94-2.362-4.232-2.418-23.242-14.125-23.433-14.244-0.454-0.28-1.053-0.138-1.336 0.317-0.28 0.456-0.139 1.055 0.318 1.336z"></path>
<path d="M28.808 15.366l-3.581-3.581-3.581 3.581 3.581 3.581 3.581-3.581z"></path>
<path d="M22.477 15.366l-3.581-3.581-3.581 3.581 3.581 3.581 3.581-3.581z"></path>
<path d="M256.759 13.856h172.642c0.62 0 1.123 0.503 1.123 1.123s-0.503 1.123-1.123 1.123h-172.642c-0.619 0-1.123-0.503-1.123-1.123s0.504-1.123 1.123-1.123z"></path>
<path d="M437.224 4.201c-6.824 0-13.189 1.829-16.503 3.724-4.259 2.433-23.296 14.157-23.49 14.275-0.456 0.282-0.597 0.88-0.317 1.336s0.878 0.6 1.336 0.317c0.19-0.117 19.202-11.825 23.433-14.243 4.457-2.547 14.831-4.968 23.939-2.362 5.222 1.492 7.32 4.277 8.162 6.351 0.992 2.446 0.763 5.333-0.61 7.717-2.72 4.723-9.835 6.648-18.127 4.902-5.019-1.057-7.86-4.278-7.985-6.771-0.094-1.894 1.304-3.398 3.941-4.234l0.247-0.076-0.504-1.876 0.279 0.931-0.329-0.915-0.283 0.086c-3.5 1.111-5.428 3.364-5.288 6.18 0.192 3.847 4.197 7.453 9.524 8.574 9.128 1.92 17.062-0.366 20.209-5.833 1.67-2.899 1.94-6.419 0.727-9.416-1.004-2.474-3.453-5.781-9.429-7.488-2.92-0.835-5.969-1.179-8.931-1.179z"></path>
<path d="M415.697 10.005c-0.19 0.119-19.23 11.844-23.486 14.276-4.756 2.717-15.788 5.299-25.437 2.544-5.975-1.707-8.425-5.015-9.428-7.489-1.214-2.997-0.943-6.518 0.728-9.416 2.405-4.181 7.613-6.503 14.014-6.503 1.967 0 4.046 0.219 6.191 0.671 1.283 0.268 2.502 0.682 3.628 1.227 3.81 1.846 6.124 5.004 5.894 8.047-0.012 0.174-0.041 0.369-0.079 0.571-0.526-0.395-1.149-0.693-1.862-0.873 0.067-2.169-1.83-4.56-4.798-5.998-0.983-0.477-2.054-0.837-3.182-1.075-8.293-1.743-15.406 0.177-18.126 4.901-1.373 2.385-1.602 5.271-0.61 7.718 0.84 2.074 2.939 4.859 8.162 6.351 9.108 2.604 19.482 0.184 23.939-2.362 4.232-2.418 23.243-14.125 23.433-14.244 0.454-0.28 1.053-0.138 1.336 0.317 0.28 0.456 0.139 1.055-0.318 1.336z"></path>
<path d="M360.277 10.005c-0.192 0.119-19.23 11.844-23.488 14.276-4.756 2.717-15.788 5.299-25.435 2.544-5.975-1.707-8.425-5.015-9.428-7.489-1.214-2.997-0.945-6.518 0.727-9.416 2.405-4.181 7.613-6.503 14.014-6.503 1.967 0 4.047 0.219 6.193 0.671 1.282 0.268 2.502 0.682 3.628 1.227 3.81 1.846 6.123 5.004 5.894 8.047-0.014 0.174-0.043 0.369-0.081 0.571-0.524-0.395-1.149-0.693-1.862-0.873 0.067-2.169-1.83-4.56-4.798-5.998-0.981-0.477-2.053-0.837-3.18-1.075-8.293-1.743-15.407 0.177-18.126 4.901-1.374 2.385-1.603 5.271-0.611 7.718 0.841 2.074 2.939 4.859 8.162 6.351 9.108 2.604 19.482 0.184 23.941-2.362 4.23-2.418 23.241-14.125 23.433-14.244 0.453-0.28 1.051-0.138 1.335 0.317 0.28 0.456 0.14 1.055-0.317 1.336z"></path>
<path d="M431.106 18.946l3.582-3.581-3.582-3.581-3.581 3.581 3.581 3.581z"></path>
<path d="M437.437 18.946l3.582-3.581-3.582-3.581-3.581 3.581 3.581 3.581z"></path>
<path d="M226.664 0.696l-12.989 12.989c-0.928 0.928-0.928 2.433 0 3.361l12.989 12.989c0.928 0.928 2.432 0.928 3.36 0l12.989-12.989c0.928-0.928 0.928-2.433 0-3.361l-12.989-12.989c-0.928-0.928-2.432-0.928-3.36 0z"></path>
</symbol>
<symbol id="icon-logo" viewBox="0 0 41 32">
<path fill="#b09a0c" style="fill: var(--color1, #b09a0c)" d="M29.871 1.594c-0.259-0.344-0.724-0.961-1.070-1.017-0.858 1.783-1.101 3.92-0.448 5.806 0.314 0.907 0.805 1.665 1.308 2.442 0.147 0.227 0.295 0.455 0.44 0.689-0.463 2.262-1.776 4.299-3.235 6.056-0.389 0.469-0.8 0.961-1.253 1.368 0.788-1.425 0.99-3.047 0.539-4.621-0.356-1.243-1.154-2.346-2.303-2.966-1.032-0.557-2.32-0.649-3.435-0.301-1.278 0.398-2.284 1.305-2.899 2.484-0.199 0.381-0.348 0.779-0.464 1.192-0.602-1.236-1.471-2.252-2.809-2.707-1.051-0.358-2.24-0.315-3.241 0.178-0.937 0.473-1.647 1.299-1.974 2.297-0.452 1.344-0.244 2.789 0.385 4.040 0.92 1.828 2.705 3.402 4.343 4.847 0.435 0.383 0.859 0.758 1.254 1.125l1.719 1.603c0.082 0.076 0.164 0.157 0.248 0.237 0.249 0.242 0.506 0.491 0.787 0.677 0.124-0.031 0.228-0.125 0.324-0.213 0.013-0.012 0.026-0.024 0.038-0.035 0.875-0.789 1.72-1.618 2.564-2.445 0.383-0.375 0.765-0.75 1.15-1.121 0.466-0.449 0.937-0.893 1.409-1.336 0.666-0.626 1.331-1.252 1.981-1.894 0.492-0.486 0.97-0.987 1.432-1.503 0.838-0.932 1.591-1.937 2.251-3.003 0.228-0.376 0.419-0.767 0.611-1.157 0.142-0.289 0.283-0.578 0.44-0.861 0.488-0.883 1.331-1.609 2.138-2.191 2.32 0.456 4.541 0.641 6.599-0.748 0.423-0.285 1.67-1.238 1.824-1.731-0.044-0.116-0.103-0.145-0.215-0.198-0.239-0.114-0.509-0.187-0.769-0.257-0.041-0.011-0.082-0.022-0.123-0.034-1.422-0.393-2.935-0.457-4.327 0.088-0.896 0.351-1.841 0.935-2.49 1.653-0.109 0.121-0.21 0.251-0.31 0.381-0.136 0.176-0.272 0.353-0.43 0.506-0.257 0.249-0.533 0.483-0.809 0.717-0.24 0.203-0.481 0.407-0.71 0.621 0.071-0.542 0.236-0.897 0.414-1.28 0.103-0.222 0.21-0.453 0.307-0.736 0.798-2.347 0.409-4.58-1.102-6.54-0.025-0.032-0.054-0.071-0.086-0.113zM21.559 9.384c0.101-0.007 0.201-0.007 0.302-0.006 1.029 0.018 2.008 0.45 2.714 1.199 0.892 0.932 1.32 2.268 1.283 3.545-0.030 1.025-0.358 2.004-0.889 2.876-0.79 1.295-1.963 2.382-3.094 3.43-0.263 0.243-0.524 0.485-0.776 0.726l-3.326 3.193c-1.058-1.021-2.153-2.011-3.246-2.998l-0.004-0.003c-0.291-0.263-0.584-0.527-0.874-0.79l-0.009-0.008c-1.529-1.341-3.332-2.921-4.035-4.877-0.399-1.109-0.415-2.34 0.096-3.416 0.387-0.828 1.094-1.463 1.959-1.76 0.934-0.32 1.955-0.213 2.834 0.22 0.957 0.472 1.707 1.337 2.102 2.323 0.071 0.176 0.125 0.358 0.18 0.54 0.037 0.122 0.073 0.243 0.114 0.363 0.104 0.084 0.133 0.091 0.265 0.115 0.086-0.056 0.289-0.693 0.463-1.241 0.105-0.33 0.2-0.628 0.253-0.748 0.189-0.434 0.44-0.838 0.744-1.201 0.77-0.914 1.765-1.38 2.944-1.483zM24.466 11.136c0.071 0.103 0.139 0.208 0.208 0.314 0.031 0.048 0.062 0.095 0.093 0.143-0.541 0.027-1.134 0.107-1.538 0.505-0.283 0.279-0.4 0.679-0.465 1.061-0.1 0.581-0.086 1.203-0.073 1.808 0.004 0.183 0.008 0.364 0.009 0.543 0.010 1.164 0.006 2.329-0.011 3.493-0.673 0.576-1.317 1.2-1.957 1.822-0.24 0.233-0.479 0.465-0.72 0.694l-0.009-5.144c0-0.281 0.004-0.562 0.007-0.844 0.007-0.558 0.014-1.117-0.006-1.671-0-0.012-0.001-0.025-0.001-0.037-0.002-0.093-0.005-0.194-0.069-0.26l-0.070 0.111c-0.603 1.441-1.272 2.854-1.94 4.268-0.651 1.376-1.301 2.752-1.892 4.153-0.216-0.201-0.436-0.398-0.658-0.592 1.056-2.255 2.101-4.515 3.133-6.782 0.144-0.317 0.294-0.635 0.444-0.953 0.406-0.863 0.815-1.732 1.14-2.618 1.458 0.011 2.917 0.006 4.375-0.013zM30.588 3.501c0.701 1.606 0.623 3.316-0.006 4.931 0.006-1.202-0.062-2.34-0.384-3.508-0.005-0.019-0.011-0.041-0.018-0.066-0.086-0.318-0.284-1.046-0.508-1.174l-0.079 0.080c0.451 1.735 0.639 3.349 0.553 5.143-0.369-0.561-0.735-1.122-1.034-1.724-1.034-2.086-0.888-3.846-0.169-6.001 0.581 0.355 1.365 1.683 1.643 2.318zM36.734 6.405c1.124-0.076 2.204 0.127 3.279 0.441-0.456 0.518-1.009 0.991-1.582 1.375-1.771 1.188-3.759 1.128-5.771 0.729 0.465-0.255 0.966-0.456 1.459-0.651 0.736-0.276 1.499-0.478 2.264-0.655 0.117-0.027 0.238-0.046 0.359-0.066 0.174-0.028 0.347-0.055 0.512-0.106 0.078-0.024 0.138-0.051 0.195-0.112 0.034-0.036 0.033-0.040 0.029-0.070-0.001-0.009-0.003-0.019-0.004-0.034-0.002-0.001-0.004-0.003-0.007-0.004s-0.003-0.002-0.005-0.003c-0.007-0.005-0.014-0.010-0.022-0.013-0.109-0.047-0.312-0.021-0.47-0.001-0.044 0.006-0.084 0.011-0.118 0.014-1.427 0.126-2.708 0.594-4.021 1.131 1.070-1.105 2.368-1.803 3.902-1.975z"></path>
<path fill="#fff" style="fill: var(--color2, #fff)" d="M24.466 11.136c-1.458 0.019-2.917 0.023-4.375 0.013-0.325 0.885-0.734 1.755-1.14 2.618-0.15 0.318-0.299 0.636-0.444 0.953-1.033 2.266-2.077 4.527-3.133 6.782 0.222 0.194 0.442 0.391 0.658 0.592 0.591-1.401 1.241-2.777 1.892-4.152 0.668-1.414 1.337-2.828 1.94-4.268l0.070-0.111c0.064 0.066 0.066 0.166 0.069 0.259 0 0.013 0.001 0.025 0.001 0.038 0.021 0.554 0.014 1.113 0.006 1.671-0.004 0.282-0.007 0.564-0.007 0.844l0.009 5.144c0.24-0.229 0.48-0.461 0.72-0.694 0.64-0.621 1.284-1.246 1.957-1.822 0.017-1.164 0.021-2.329 0.011-3.493-0.001-0.178-0.005-0.36-0.009-0.543-0.013-0.605-0.027-1.227 0.073-1.808 0.066-0.382 0.182-0.782 0.465-1.061 0.403-0.398 0.997-0.478 1.538-0.505-0.031-0.047-0.062-0.095-0.093-0.143-0.068-0.105-0.136-0.211-0.208-0.314z"></path>
<path fill="#000" style="fill: var(--color3, #000)" d="M20.090 11.149c1.458 0.011 2.917 0.006 4.375-0.013 0.103 0.15 0.201 0.305 0.3 0.457-0.541 0.027-1.134 0.107-1.538 0.505-0.283 0.279-0.4 0.679-0.465 1.061-0.13 0.757-0.068 1.583-0.064 2.351 0.010 1.164 0.006 2.329-0.012 3.493-0.925 0.792-1.795 1.675-2.677 2.516l-0.009-5.144c0-0.835 0.032-1.681 0.001-2.515-0.004-0.103 0.003-0.222-0.070-0.297l-0.070 0.111c-1.19 2.843-2.634 5.58-3.832 8.421-0.216-0.201-0.436-0.398-0.658-0.592 1.056-2.255 2.101-4.515 3.134-6.782 0.536-1.176 1.138-2.358 1.584-3.571z"></path>
<path fill="#000" style="fill: var(--color3, #000)" d="M30.544 11.144c0.721 0.028 5.619-0.047 5.793 0.041 0.011 0.057 0.027 0.121 0.028 0.181 0.001 0.166-0.013 0.203-0.179 0.22-1.163 0.119-1.936 0.329-2.86 1.104-0.959 0.804-1.831 1.756-2.711 2.644l-3.924 3.928c1.914 2.142 3.775 4.327 5.672 6.483 1.035 1.176 2.396 2.977 3.65 3.806 0.409 0.271 0.89 0.516 1.369 0.635 0.359 0.089 0.871 0.095 1.189 0.28 0.001 0.126 0.029 0.227-0.048 0.33-0.683 0.056-1.395 0.007-2.082-0.003-1.177-0.025-2.356-0.031-3.534-0.017-0.419 0.005-2.312 0.108-2.571 0.029l-0.032-0.15c0.127-0.381 0.779-0.303 1.095-0.531 0.159-0.115 0.25-0.267 0.268-0.463 0.026-0.284-0.082-0.557-0.221-0.798-0.357-0.619-0.899-1.169-1.362-1.713l-2.205-2.583c-1.002-1.162-1.993-2.338-3.028-3.471-0.712 0.718-1.449 1.41-2.156 2.135l0.002 3.333c0.001 0.652-0.034 1.334 0.037 1.982 0.154 1.398 0.753 1.717 2.075 1.817 0.228 0.017 0.454 0.009 0.641 0.156 0.048 0.11 0.054 0.134 0.042 0.253-0.117 0.057-0.263 0.060-0.391 0.062-1.623 0.022-3.253-0.026-4.878-0.018-0.695 0.004-2.245 0.094-2.868-0.008-0.012-0.055-0.027-0.114-0.029-0.171-0.001-0.029 0.005-0.179 0.020-0.2 0.021-0.029 1.629-0.054 2.151-0.588 0.229-0.234 0.347-0.576 0.409-0.891 0.148-0.756 0.090-1.576 0.087-2.343-0.007-0.977-0.008-1.954-0.002-2.932 0.858-0.886 1.789-1.72 2.689-2.564l0.015 1.010c0.739-0.779 1.542-1.512 2.306-2.268l3.956-3.968c0.77-0.775 1.628-1.539 2.324-2.379 0.184-0.223 0.414-0.517 0.453-0.808 0.032-0.241 0.005-0.481-0.154-0.673-0.276-0.334-0.747-0.38-1.147-0.428l0.111-0.461z"></path>
<path fill="#000" style="fill: var(--color3, #000)" d="M0.329 11.157c1.763 0.011 3.526 0.008 5.289-0.009 0.708 1.698 1.51 3.363 2.268 5.040l4.933 10.888c0.627-1.383 1.273-2.757 1.937-4.122 0.206 0.177 0.4 0.371 0.598 0.557-0.778 1.67-1.546 3.345-2.303 5.025-0.298 0.653-0.679 1.684-1.065 2.263-0.107 0.020-0.207 0.049-0.314 0.017-0.576-1.012-1.091-2.345-1.584-3.426l-3.099-6.808c-1.045-2.144-2.028-4.329-3.010-6.502 0.067 3.277 0.008 6.569 0.009 9.847 0 1.372-0.127 3.695 0.169 4.958 0.242 1.032 0.931 1.401 1.925 1.474 0.25 0.019 0.548 0.003 0.767 0.14 0.062 0.111 0.066 0.133 0.064 0.261-0.011 0.007-0.022 0.015-0.034 0.021-0.108 0.052-0.255 0.052-0.373 0.054-1.325 0.025-2.658-0.006-3.984-0.006-0.49 0-1.723 0.077-2.142-0.030-0.039-0.089-0.045-0.125-0.026-0.22 0.226-0.3 1.396-0.239 1.873-0.532 0.456-0.28 0.692-0.728 0.816-1.234 0.264-1.084 0.149-2.348 0.146-3.463l-0.010-4.619-0.003-4.621c-0.001-0.856 0.042-1.734-0.027-2.585-0.030-0.37-0.108-0.707-0.309-1.026-0.585-0.931-1.542-0.748-2.45-0.957-0.081-0.114-0.059-0.249-0.064-0.387z"></path>
</symbol>
<symbol id="icon-Instagram" viewBox="0 0 32 32">
<path d="M15.998 6.161c3.206 0 3.585 0.014 4.846 0.071 1.172 0.052 1.804 0.248 2.226 0.412 0.558 0.216 0.961 0.478 1.378 0.895 0.422 0.422 0.679 0.82 0.9 1.378 0.164 0.422 0.361 1.059 0.412 2.226 0.056 1.266 0.071 1.645 0.071 4.847s-0.014 3.585-0.071 4.847c-0.052 1.172-0.248 1.804-0.412 2.227-0.216 0.558-0.478 0.961-0.895 1.377-0.422 0.422-0.82 0.679-1.378 0.9-0.422 0.164-1.060 0.361-2.226 0.412-1.266 0.056-1.645 0.071-4.847 0.071s-3.585-0.014-4.847-0.071c-1.172-0.052-1.804-0.248-2.226-0.412-0.558-0.216-0.961-0.478-1.378-0.895-0.422-0.422-0.679-0.82-0.9-1.378-0.164-0.422-0.361-1.060-0.412-2.226-0.056-1.266-0.071-1.645-0.071-4.847s0.014-3.585 0.071-4.847c0.052-1.172 0.248-1.804 0.412-2.226 0.216-0.558 0.478-0.961 0.895-1.378 0.422-0.422 0.82-0.679 1.378-0.9 0.422-0.164 1.059-0.361 2.226-0.412 1.261-0.056 1.641-0.071 4.847-0.071h0.001zM15.998 4.001c-3.258 0-3.665 0.014-4.945 0.071-1.275 0.056-2.151 0.262-2.91 0.558-0.792 0.309-1.462 0.717-2.127 1.387-0.67 0.666-1.078 1.336-1.387 2.123-0.295 0.764-0.502 1.636-0.558 2.91-0.056 1.285-0.071 1.692-0.071 4.949s0.014 3.665 0.071 4.945c0.056 1.275 0.262 2.151 0.558 2.91 0.31 0.792 0.717 1.462 1.387 2.127 0.665 0.665 1.336 1.078 2.123 1.383 0.764 0.295 1.636 0.502 2.91 0.558 1.279 0.056 1.687 0.071 4.945 0.071s3.666-0.014 4.945-0.071c1.275-0.056 2.151-0.262 2.91-0.558 0.787-0.305 1.458-0.717 2.123-1.383s1.078-1.336 1.383-2.123c0.295-0.764 0.502-1.635 0.558-2.91 0.056-1.279 0.071-1.687 0.071-4.945s-0.014-3.665-0.071-4.945c-0.056-1.275-0.262-2.151-0.558-2.91-0.295-0.797-0.703-1.467-1.373-2.133-0.665-0.665-1.336-1.078-2.123-1.383-0.764-0.295-1.635-0.502-2.91-0.558-1.284-0.061-1.692-0.075-4.949-0.075l-0.001 0.001z"></path>
<path d="M15.998 9.836c-3.402 0-6.163 2.76-6.163 6.163s2.76 6.163 6.163 6.163c3.403 0 6.163-2.76 6.163-6.163s-2.76-6.163-6.163-6.163zM15.998 19.997c-2.208 0-3.998-1.79-3.998-3.998s1.79-3.998 3.998-3.998c2.208 0 3.998 1.79 3.998 3.998s-1.79 3.998-3.998 3.998z"></path>
<path d="M23.843 9.592c0 0.795-0.644 1.439-1.439 1.439s-1.439-0.644-1.439-1.439 0.644-1.439 1.439-1.439c0.795 0 1.439 0.644 1.439 1.439z"></path>
</symbol>
<symbol id="icon-cube" viewBox="0 0 29 32">
<path d="M28.368 8.192l-0.224-0.4c-0.289-0.484-0.696-0.886-1.184-1.168l-10.736-6.192c-0.486-0.282-1.038-0.431-1.6-0.432h-0.464c-0.562 0.001-1.114 0.15-1.6 0.432l-10.736 6.208c-0.485 0.28-0.888 0.683-1.168 1.168l-0.224 0.4c-0.282 0.486-0.431 1.038-0.432 1.6v12.4c0.001 0.562 0.15 1.114 0.432 1.6l0.224 0.4c0.288 0.479 0.689 0.88 1.168 1.168l10.752 6.192c0.484 0.288 1.037 0.437 1.6 0.432h0.448c0.562-0.001 1.114-0.15 1.6-0.432l10.736-6.208c0.49-0.274 0.894-0.678 1.168-1.168l0.24-0.4c0.279-0.488 0.427-1.038 0.432-1.6v-12.4c-0.001-0.562-0.15-1.114-0.432-1.6zM14.16 3.2h0.464l9.376 5.408-9.6 5.536-9.6-5.536 9.36-5.408zM16 28l9.36-5.408 0.24-0.4v-10.816l-9.6 5.552v11.072z"></path>
</symbol>
<symbol id="icon-facebook" viewBox="0 0 32 32">
<path d="M32 16.098c0-8.891-7.163-16.098-16-16.098s-16 7.207-16 16.098c0 8.035 5.851 14.695 13.5 15.902v-11.249h-4.063v-4.653h4.063v-3.547c0-4.035 2.389-6.263 6.043-6.263 1.751 0 3.582 0.314 3.582 0.314v3.962h-2.017c-1.988 0-2.608 1.241-2.608 2.514v3.020h4.437l-0.709 4.653h-3.728v11.249c7.649-1.208 13.5-7.867 13.5-15.902z"></path>
</symbol>
<symbol id="icon-twitter" viewBox="0 0 36 32">
<path d="M28.352 0h5.52l-12.060 13.555 14.188 18.445h-11.109l-8.701-11.187-9.956 11.187h-5.524l12.899-14.498-13.61-17.502h11.391l7.865 10.225 9.096-10.225zM26.415 28.751h3.059l-19.745-25.672h-3.282l19.968 25.672z"></path>
</symbol>
<symbol id="icon-left-arrow" viewBox="0 0 32 32">
<path stroke-linejoin="miter" stroke-linecap="butt" stroke-miterlimit="4" stroke-width="2" d="M15.643 1c0.171 0 0.318 0.053 0.482 0.217 0.165 0.172 0.217 0.326 0.217 0.498-0 0.174-0.053 0.322-0.217 0.486l-12.723 12.723h26.82c0.243 0 0.393 0.071 0.522 0.197 0.124 0.123 0.193 0.266 0.193 0.506s-0.069 0.383-0.193 0.506c-0.128 0.127-0.279 0.197-0.522 0.197h-26.82l12.711 12.709c0.165 0.165 0.221 0.319 0.223 0.502v0.002c0.001 0.133-0.028 0.25-0.111 0.369l-0.104 0.123c-0.16 0.162-0.306 0.214-0.484 0.213-0.189-0.002-0.346-0.062-0.512-0.227l-13.896-13.896c-0.106-0.108-0.158-0.193-0.182-0.25v-0.002c-0.030-0.073-0.047-0.153-0.047-0.248s0.017-0.173 0.047-0.244v-0.002c0.024-0.057 0.075-0.142 0.182-0.25l13.9-13.9c0.181-0.174 0.34-0.229 0.514-0.229z"></path>
</symbol>
<symbol id="icon-right-arrow" viewBox="0 0 32 32">
<path stroke-linejoin="miter" stroke-linecap="butt" stroke-miterlimit="4" stroke-width="2" d="M16.289 1c0.142 0.001 0.266 0.035 0.389 0.121l0.123 0.105 13.896 13.896c0.106 0.108 0.158 0.193 0.182 0.25v0.002c0.030 0.073 0.047 0.153 0.047 0.248s-0.017 0.173-0.047 0.244v0.002c-0.024 0.057-0.075 0.142-0.182 0.25l-13.908 13.896c-0.183 0.181-0.34 0.232-0.506 0.232-0.161-0-0.306-0.049-0.473-0.221l-0.010-0.010-0.104-0.121c-0.084-0.119-0.113-0.235-0.113-0.365s0.030-0.245 0.113-0.363l0.104-0.121 12.723-12.723h-26.82c-0.244-0-0.389-0.070-0.51-0.191h-0.002c-0.122-0.122-0.191-0.268-0.191-0.512s0.070-0.39 0.191-0.512h0.002c0.121-0.121 0.266-0.191 0.51-0.191h26.82l-12.711-12.711c-0.123-0.123-0.186-0.24-0.211-0.369l-0.012-0.135c-0.002-0.18 0.050-0.327 0.211-0.488l0.002-0.002c0.16-0.161 0.307-0.214 0.486-0.213z"></path>
</symbol>
<symbol id="icon-add" viewBox="0 0 32 32">
<path d="M13.435 17.082h-11.618c-0.513 0-0.944-0.176-1.293-0.527s-0.524-0.784-0.524-1.3c0-0.515 0.175-0.945 0.524-1.29s0.78-0.517 1.293-0.517h11.618v-11.618c0-0.512 0.176-0.945 0.527-1.299s0.784-0.531 1.3-0.531c0.515 0 0.945 0.177 1.29 0.531s0.517 0.787 0.517 1.299v11.618h11.618c0.512 0 0.945 0.176 1.299 0.527s0.531 0.784 0.531 1.3c0 0.515-0.177 0.945-0.531 1.29s-0.787 0.517-1.299 0.517h-11.618v11.618c0 0.513-0.176 0.944-0.527 1.293s-0.784 0.524-1.3 0.524c-0.515 0-0.945-0.174-1.29-0.524s-0.517-0.78-0.517-1.293v-11.618z"></path>
</symbol>
<symbol id="icon-close" viewBox="0 0 32 32">
<path stroke-linejoin="miter" stroke-linecap="butt" stroke-miterlimit="4" stroke-width="2.2857" d="M27.828 1.143c0.376 0 0.609 0.111 0.792 0.295s0.294 0.416 0.295 0.79c0 0.375-0.111 0.609-0.295 0.792l-12.009 12.009 12.009 12.007c0.184 0.184 0.295 0.417 0.295 0.792s-0.111 0.609-0.295 0.792-0.417 0.295-0.792 0.295c-0.375 0-0.609-0.111-0.792-0.295l-12.007-12.009-12.009 12.009c-0.184 0.184-0.417 0.295-0.792 0.295s-0.607-0.111-0.79-0.295c-0.184-0.184-0.295-0.417-0.295-0.792s0.111-0.609 0.295-0.792l12.007-12.007-12.007-12.009c-0.184-0.184-0.295-0.417-0.295-0.792s0.111-0.607 0.295-0.79 0.415-0.294 0.79-0.295c0.375 0 0.609 0.111 0.792 0.295l12.009 12.007 12.007-12.007c0.184-0.184 0.417-0.295 0.792-0.295z"></path>
</symbol>
<symbol id="icon-email" viewBox="0 0 40 32">
<path stroke-linejoin="miter" stroke-linecap="butt" stroke-miterlimit="4" stroke-width="1.8824" d="M2.265 3.572v24.855h33.68v-24.109l-16.436 10.82c-0.114 0.060-0.212 0.108-0.298 0.142-0.006 0.002-0.038 0.011-0.107 0.011-0.070-0-0.101-0.009-0.107-0.011-0.086-0.034-0.185-0.082-0.3-0.142l-14.551-9.583v-0.752l14.958 9.798 18.129-11.84c0.029 0.146 0.046 0.298 0.046 0.456v24.268c0 0.605-0.211 1.119-0.68 1.586s-0.986 0.678-1.596 0.678h-31.798c-0.606 0-1.12-0.212-1.586-0.678l-0.164-0.176c-0.353-0.419-0.515-0.88-0.515-1.41v-24.268c0-0.167 0.017-0.326 0.050-0.48l1.274 0.835zM3.206 0.941h31.798c0.609 0 1.125 0.213 1.594 0.682h0.002c0.206 0.206 0.36 0.424 0.471 0.653h-35.921c0.11-0.23 0.264-0.448 0.471-0.654h0.002c0.467-0.468 0.98-0.68 1.585-0.68z"></path>
</symbol>
<symbol id="icon-number" viewBox="0 0 32 32">
<path stroke-linejoin="miter" stroke-linecap="butt" stroke-miterlimit="4" stroke-width="1.6842" d="M2.136 0.842h5.895c0.309 0 0.524 0.092 0.701 0.258 0.157 0.148 0.29 0.341 0.388 0.595l0.087 0.275 1.12 5.076c0.055 0.39 0.042 0.702-0.016 0.949-0.052 0.221-0.156 0.403-0.324 0.562l-0.012 0.010-4.711 4.646 0.337 0.566c0.719 1.208 1.482 2.34 2.291 3.395 0.813 1.060 1.716 2.067 2.707 3.023 1.033 1.066 2.113 2.035 3.24 2.903 1.137 0.875 2.325 1.642 3.564 2.298l0.557 0.294 4.507-4.625c0.235-0.255 0.482-0.408 0.745-0.487 0.221-0.065 0.439-0.088 0.66-0.072l0.222 0.029 4.75 1.051c0.279 0.078 0.501 0.198 0.681 0.357l0.168 0.173c0.197 0.237 0.293 0.503 0.293 0.831v5.743c0 0.399-0.125 0.688-0.367 0.928-0.247 0.244-0.538 0.367-0.928 0.367-3.158-0-6.392-0.758-9.709-2.299-3.315-1.54-6.398-3.731-9.25-6.582-2.673-2.673-4.766-5.551-6.289-8.635l-0.298-0.62c-1.544-3.32-2.304-6.553-2.304-9.704 0-0.3 0.070-0.539 0.207-0.743l0.161-0.192c0.243-0.244 0.532-0.368 0.926-0.368zM2.048 2.914c0.052 1.201 0.241 2.461 0.561 3.778 0.323 1.327 0.827 2.792 1.508 4.39l0.487 1.143 4.609-4.582-0.097-0.449-0.957-4.492-0.143-0.666h-6.005l0.038 0.878zM28.793 22.791l-5.314-1.099-0.324 0.337-4.117 4.314 1.066 0.497c1.17 0.544 2.439 0.986 3.803 1.327 1.365 0.342 2.7 0.548 4.002 0.614l0.885 0.044v-6.035z"></path>
</symbol>
<symbol id="icon-geo" viewBox="0 0 27 32">
<path stroke-linejoin="miter" stroke-linecap="butt" stroke-miterlimit="4" stroke-width="1.6" d="M13.039 0.8c3.239 0 6.085 1.127 8.569 3.413 2.438 2.243 3.68 5.256 3.68 9.128-0 1.576-0.347 3.152-1.055 4.733-0.726 1.621-1.636 3.174-2.733 4.659-1.106 1.498-2.308 2.896-3.605 4.194-1.317 1.318-2.545 2.483-3.683 3.497l-0.009 0.008-0.008 0.008c-0.145 0.137-0.312 0.236-0.508 0.3-0.234 0.076-0.454 0.111-0.661 0.111s-0.421-0.035-0.644-0.109c-0.185-0.062-0.342-0.158-0.48-0.292l-0.014-0.014-0.016-0.012c-1.144-1.013-2.374-2.178-3.691-3.495-1.297-1.298-2.498-2.696-3.605-4.194-1.096-1.485-2.006-3.037-2.728-4.658-0.705-1.581-1.050-3.158-1.050-4.734 0-3.873 1.242-6.886 3.677-9.128 2.481-2.285 5.324-3.412 8.563-3.413zM13.039 1.934c-3.096 0-5.744 1.070-7.891 3.205-2.159 2.148-3.223 4.905-3.223 8.202 0 2.271 0.95 4.734 2.717 7.366 1.768 2.633 4.393 5.559 7.852 8.777l0.539 0.501 0.544-0.494c3.541-3.212 6.193-6.141 7.925-8.786 1.726-2.635 2.651-5.098 2.652-7.364 0-3.297-1.064-6.054-3.223-8.202v-0.002c-2.147-2.134-4.795-3.203-7.891-3.203zM13.036 10.972c0.586 0 1.062 0.197 1.473 0.606 0.41 0.408 0.606 0.882 0.606 1.467s-0.197 1.060-0.605 1.467c-0.408 0.407-0.883 0.603-1.469 0.603s-1.060-0.197-1.467-0.602c-0.406-0.404-0.603-0.875-0.603-1.461 0-0.514 0.151-0.944 0.461-1.319l0.142-0.156c0.405-0.409 0.876-0.606 1.461-0.606z"></path>
</symbol>
<symbol id="decoration" viewBox="0 0 457 32">
<path d="M199.573 13.856h-172.64c-0.621 0-1.124 0.503-1.124 1.123s0.503 1.123 1.124 1.123h172.64c0.62 0 1.123-0.503 1.123-1.123s-0.503-1.123-1.123-1.123z"></path>
<path d="M19.11 4.201c6.823 0 13.189 1.829 16.504 3.724 4.258 2.433 23.296 14.157 23.488 14.275 0.456 0.282 0.598 0.88 0.317 1.336-0.28 0.456-0.877 0.6-1.335 0.317-0.191-0.117-19.202-11.825-23.434-14.243-4.456-2.547-14.83-4.968-23.939-2.362-5.222 1.492-7.321 4.277-8.162 6.351-0.992 2.446-0.764 5.333 0.609 7.717 2.72 4.723 9.835 6.648 18.127 4.902 5.019-1.057 7.86-4.278 7.985-6.771 0.094-1.894-1.305-3.398-3.94-4.234l-0.248-0.076 0.504-1.876-0.279 0.931 0.329-0.915 0.283 0.086c3.5 1.111 5.428 3.364 5.288 6.18-0.192 3.847-4.197 7.453-9.524 8.574-9.128 1.92-17.061-0.366-20.208-5.833-1.67-2.899-1.941-6.419-0.727-9.416 1.003-2.474 3.452-5.781 9.428-7.488 2.92-0.835 5.968-1.179 8.931-1.179z"></path>
<path d="M40.636 10.005c0.191 0.119 19.23 11.844 23.487 14.276 4.756 2.717 15.788 5.299 25.436 2.544 5.975-1.707 8.425-5.015 9.428-7.489 1.214-2.997 0.943-6.518-0.728-9.416-2.405-4.181-7.613-6.503-14.015-6.503-1.967 0-4.046 0.219-6.192 0.671-1.282 0.268-2.502 0.682-3.628 1.227-3.809 1.846-6.123 5.004-5.894 8.047 0.013 0.174 0.041 0.369 0.080 0.571 0.525-0.395 1.149-0.693 1.862-0.873-0.067-2.169 1.83-4.56 4.798-5.998 0.982-0.477 2.054-0.837 3.181-1.075 8.293-1.743 15.406 0.177 18.126 4.901 1.374 2.385 1.601 5.271 0.61 7.718-0.841 2.074-2.939 4.859-8.162 6.351-9.108 2.604-19.482 0.184-23.94-2.362-4.232-2.418-23.242-14.125-23.433-14.244-0.454-0.28-1.053-0.138-1.336 0.317-0.28 0.456-0.139 1.055 0.318 1.336z"></path>
<path d="M96.057 10.005c0.191 0.119 19.23 11.844 23.487 14.276 4.756 2.717 15.789 5.299 25.436 2.544 5.975-1.707 8.426-5.015 9.429-7.489 1.214-2.997 0.943-6.518-0.728-9.416-2.405-4.181-7.613-6.503-14.016-6.503-1.966 0-4.045 0.219-6.191 0.671-1.282 0.268-2.502 0.682-3.628 1.227-3.809 1.846-6.123 5.004-5.894 8.047 0.013 0.174 0.041 0.369 0.079 0.571 0.525-0.395 1.15-0.693 1.863-0.873-0.067-2.169 1.83-4.56 4.798-5.998 0.982-0.477 2.054-0.837 3.181-1.075 8.293-1.743 15.406 0.177 18.126 4.901 1.374 2.385 1.601 5.271 0.61 7.718-0.84 2.074-2.939 4.859-8.161 6.351-9.108 2.604-19.482 0.184-23.94-2.362-4.232-2.418-23.242-14.125-23.433-14.244-0.454-0.28-1.053-0.138-1.336 0.317-0.28 0.456-0.139 1.055 0.318 1.336z"></path>
<path d="M28.808 15.366l-3.581-3.581-3.581 3.581 3.581 3.581 3.581-3.581z"></path>
<path d="M22.477 15.366l-3.581-3.581-3.581 3.581 3.581 3.581 3.581-3.581z"></path>
<path d="M256.759 13.856h172.642c0.62 0 1.123 0.503 1.123 1.123s-0.503 1.123-1.123 1.123h-172.642c-0.619 0-1.123-0.503-1.123-1.123s0.504-1.123 1.123-1.123z"></path>
<path d="M437.224 4.201c-6.824 0-13.189 1.829-16.503 3.724-4.259 2.433-23.296 14.157-23.49 14.275-0.456 0.282-0.597 0.88-0.317 1.336s0.878 0.6 1.336 0.317c0.19-0.117 19.202-11.825 23.433-14.243 4.457-2.547 14.831-4.968 23.939-2.362 5.222 1.492 7.32 4.277 8.162 6.351 0.992 2.446 0.763 5.333-0.61 7.717-2.72 4.723-9.835 6.648-18.127 4.902-5.019-1.057-7.86-4.278-7.985-6.771-0.094-1.894 1.304-3.398 3.941-4.234l0.247-0.076-0.504-1.876 0.279 0.931-0.329-0.915-0.283 0.086c-3.5 1.111-5.428 3.364-5.288 6.18 0.192 3.847 4.197 7.453 9.524 8.574 9.128 1.92 17.062-0.366 20.209-5.833 1.67-2.899 1.94-6.419 0.727-9.416-1.004-2.474-3.453-5.781-9.429-7.488-2.92-0.835-5.969-1.179-8.931-1.179z"></path>
<path d="M415.697 10.005c-0.19 0.119-19.23 11.844-23.486 14.276-4.756 2.717-15.788 5.299-25.437 2.544-5.975-1.707-8.425-5.015-9.428-7.489-1.214-2.997-0.943-6.518 0.728-9.416 2.405-4.181 7.613-6.503 14.014-6.503 1.967 0 4.046 0.219 6.191 0.671 1.283 0.268 2.502 0.682 3.628 1.227 3.81 1.846 6.124 5.004 5.894 8.047-0.012 0.174-0.041 0.369-0.079 0.571-0.526-0.395-1.149-0.693-1.862-0.873 0.067-2.169-1.83-4.56-4.798-5.998-0.983-0.477-2.054-0.837-3.182-1.075-8.293-1.743-15.406 0.177-18.126 4.901-1.373 2.385-1.602 5.271-0.61 7.718 0.84 2.074 2.939 4.859 8.162 6.351 9.108 2.604 19.482 0.184 23.939-2.362 4.232-2.418 23.243-14.125 23.433-14.244 0.454-0.28 1.053-0.138 1.336 0.317 0.28 0.456 0.139 1.055-0.318 1.336z"></path>
<path d="M360.277 10.005c-0.192 0.119-19.23 11.844-23.488 14.276-4.756 2.717-15.788 5.299-25.435 2.544-5.975-1.707-8.425-5.015-9.428-7.489-1.214-2.997-0.945-6.518 0.727-9.416 2.405-4.181 7.613-6.503 14.014-6.503 1.967 0 4.047 0.219 6.193 0.671 1.282 0.268 2.502 0.682 3.628 1.227 3.81 1.846 6.123 5.004 5.894 8.047-0.014 0.174-0.043 0.369-0.081 0.571-0.524-0.395-1.149-0.693-1.862-0.873 0.067-2.169-1.83-4.56-4.798-5.998-0.981-0.477-2.053-0.837-3.18-1.075-8.293-1.743-15.407 0.177-18.126 4.901-1.374 2.385-1.603 5.271-0.611 7.718 0.841 2.074 2.939 4.859 8.162 6.351 9.108 2.604 19.482 0.184 23.941-2.362 4.23-2.418 23.241-14.125 23.433-14.244 0.453-0.28 1.051-0.138 1.335 0.317 0.28 0.456 0.14 1.055-0.317 1.336z"></path>
<path d="M431.106 18.946l3.582-3.581-3.582-3.581-3.581 3.581 3.581 3.581z"></path>
<path d="M437.437 18.946l3.582-3.581-3.582-3.581-3.581 3.581 3.581 3.581z"></path>
<path d="M226.664 0.696l-12.989 12.989c-0.928 0.928-0.928 2.433 0 3.361l12.989 12.989c0.928 0.928 2.432 0.928 3.36 0l12.989-12.989c0.928-0.928 0.928-2.433 0-3.361l-12.989-12.989c-0.928-0.928-2.432-0.928-3.36 0z"></path>
</symbol>
<symbol id="icon-mobile-menu" viewBox="0 0 36 32">
<path d="M0 2.56c0-0.679 0.27-1.33 0.75-1.81s1.131-0.75 1.81-0.75h30.72c0.679 0 1.33 0.27 1.81 0.75s0.75 1.131 0.75 1.81-0.27 1.33-0.75 1.81c-0.48 0.48-1.131 0.75-1.81 0.75h-30.72c-0.679 0-1.33-0.27-1.81-0.75s-0.75-1.131-0.75-1.81z"></path>
<path d="M0 15.36c0-0.679 0.27-1.33 0.75-1.81s1.131-0.75 1.81-0.75h30.72c0.679 0 1.33 0.27 1.81 0.75s0.75 1.131 0.75 1.81-0.27 1.33-0.75 1.81c-0.48 0.48-1.131 0.75-1.81 0.75h-30.72c-0.679 0-1.33-0.27-1.81-0.75s-0.75-1.131-0.75-1.81z"></path>
<path d="M0 28.16c0-0.679 0.27-1.33 0.75-1.81s1.131-0.75 1.81-0.75h30.72c0.679 0 1.33 0.27 1.81 0.75s0.75 1.131 0.75 1.81-0.27 1.33-0.75 1.81c-0.48 0.48-1.131 0.75-1.81 0.75h-30.72c-0.679 0-1.33-0.27-1.81-0.75s-0.75-1.131-0.75-1.81z"></path>
</symbol>
</defs>
</svg>
